<svg width="100" height="101" viewBox="0 0 100 101" fill="none" xmlns="http://www.w3.org/2000/svg">
<path d="M99.3501 58.6286C99.0408 58.3987 98.6786 58.2449 98.2944 58.1804C97.8899 58.0903 97.4767 58.0337 97.0657 57.9709L91.7399 57.2274C91.2024 57.1307 90.654 57.1026 90.1089 57.1436C89.8354 57.1653 89.5691 57.2394 89.3255 57.3617C89.0819 57.484 88.8658 57.6519 88.6898 57.8557C88.5311 58.0454 88.4441 58.2819 88.4432 58.526C88.4729 58.7716 88.5554 59.0085 88.6855 59.2213C88.737 59.3208 88.7812 59.4237 88.8175 59.5292C88.8684 59.7661 88.932 60.0003 89.0078 60.2309C89.0314 60.2808 89.062 60.3273 89.0987 60.3691C89.0996 60.381 89.0996 60.3929 89.0987 60.4047C89.0403 60.6938 89.2285 60.9954 89.1441 61.2739C89.0706 61.5127 88.8305 61.6572 88.679 61.8562C88.578 61.9974 88.5221 62.1642 88.5183 62.3358C88.5144 62.5075 88.5628 62.6765 88.6574 62.8218C88.8196 63.0647 89.1138 63.2302 89.1982 63.5088C89.3085 63.8753 89.01 64.2293 88.7439 64.512C88.2544 65.0325 87.802 65.5847 87.3898 66.1646C87.2739 66.3072 87.1992 66.4771 87.1734 66.6568C87.1496 67.0212 87.5109 67.3417 87.4482 67.704C87.3984 67.9889 87.1107 68.1627 86.8619 68.3324C85.9426 68.9188 85.2049 69.8614 85.1314 70.9275C84.8953 69.2312 84.1695 67.634 83.0374 66.3196C82.7281 65.9593 82.3885 65.597 82.2608 65.1404C82.2132 64.9581 82.2046 64.7634 82.1397 64.5874C81.9234 64.0324 81.2355 63.7936 80.9348 63.2826C80.7185 62.9223 80.7185 62.4594 80.4502 62.1431C80.182 61.8269 79.7602 61.7557 79.5287 61.4499C79.4131 61.2427 79.3147 61.027 79.2345 60.8048C79.1375 60.6235 79.0009 60.4649 78.8343 60.3398C78.8024 60.3151 78.7692 60.292 78.7348 60.2707C78.7707 60.2396 78.7995 60.2015 78.8193 60.1589C78.839 60.1163 78.8493 60.0702 78.8495 60.0235C78.8495 59.7785 78.5985 59.6172 78.38 59.4957C78.0988 59.3407 77.8241 59.1732 77.5559 58.9993C77.8484 58.8674 78.102 58.6665 78.2935 58.415C78.5336 58.0398 78.6329 57.596 78.5747 57.1583C78.56 56.805 78.4237 56.4666 78.1875 56.1969C78.0512 56.0565 77.8803 55.956 77.7376 55.8241C77.3677 55.4743 77.2422 54.9569 77.0886 54.4794C76.8853 53.8511 76.5673 53.1913 75.9746 52.8583C75.689 52.697 75.3559 52.6216 75.0768 52.4519C74.7978 52.2823 74.5642 51.9618 74.6615 51.6539C74.7264 51.4445 74.9276 51.3 75.0639 51.1219C75.2266 50.8917 75.289 50.6087 75.2375 50.3342C75.1861 50.0597 75.025 49.816 74.7891 49.6558C74.6291 49.5573 74.4322 49.4715 74.3998 49.2913C74.2745 49.2598 74.161 49.1948 74.0722 49.1037C73.9835 49.0125 73.923 48.899 73.8979 48.7761C73.8493 48.5298 73.8493 48.2768 73.8979 48.0305C73.9541 47.6409 74.0097 47.2527 74.0645 46.8659C74.1598 46.9043 74.2619 46.924 74.3652 46.924C74.4684 46.924 74.5705 46.9043 74.6658 46.8659C74.853 47.1601 75.0704 47.4351 75.3148 47.687C75.9735 48.4401 76.4865 49.3022 76.829 50.2318C76.9523 50.5669 77.0778 50.9418 77.3979 51.1198C77.5083 51.1806 77.6337 51.212 77.7419 51.2769C77.8753 51.3669 77.9898 51.4807 78.0794 51.612C78.3389 51.9451 78.5985 52.276 78.8559 52.609L78.8689 52.6593C78.8759 52.6888 78.8876 52.717 78.9035 52.7431C78.9514 52.7953 79.0178 52.8282 79.0896 52.8352C79.8856 53.0132 80.779 53.1766 81.4691 52.7556C82.0921 52.3786 82.3647 51.633 82.8925 51.1345C83.2667 50.7805 83.7967 50.5061 83.9027 50.0077C83.7764 49.9699 83.6522 49.9259 83.5306 49.8757C83.6388 49.771 83.7469 49.6495 83.894 49.5113C84.1078 49.3087 84.3005 49.0863 84.4694 48.8473C84.6521 48.5525 84.7973 48.2374 84.9021 47.909C85.3189 46.7584 85.7371 45.6071 86.1567 44.4552C86.3557 43.9106 86.5548 43.3618 86.8057 42.8319C87.0653 42.258 87.3725 41.7072 87.6558 41.1438C88.3872 39.6785 88.9515 38.1404 89.3388 36.5568C89.4075 36.3408 89.4303 36.1135 89.4059 35.8887C89.3453 35.5263 89.0619 35.2415 88.7915 34.9839C88.5196 34.6988 88.2097 34.4502 87.87 34.2445C87.6994 34.1418 87.5094 34.073 87.3111 34.042C87.1128 34.0111 86.9101 34.0187 86.7148 34.0644C86.1611 34.2215 85.8128 34.7702 85.6852 35.3211C85.5575 35.8719 85.6051 36.4395 85.551 36.9967C85.4732 37.803 85.1876 38.5822 85.1184 39.3907C85.0816 39.8577 85.1184 40.3311 85.06 40.7982C84.9535 41.4094 84.7337 41.997 84.411 42.5324C83.7095 43.8093 82.7598 44.943 81.614 45.871C81.4821 45.9778 81.3458 46.0805 81.216 46.1957C81.216 46.1056 81.2311 46.0135 81.2441 45.9234C81.1499 45.9471 81.058 45.9787 80.9694 46.0176C80.9803 45.9119 80.9693 45.8051 80.9369 45.7035C80.7639 45.2029 79.9938 45.0751 79.8553 44.5662C79.8323 44.4403 79.82 44.3128 79.8186 44.185C79.7731 43.7388 79.4595 43.3618 79.3513 42.9283C79.2518 42.5282 79.3275 42.0905 79.135 41.7197C78.9709 41.4879 78.7776 41.2769 78.5596 41.0914C78.2997 40.8039 78.1123 40.4619 78.0123 40.0923C77.9842 39.9897 77.9582 39.8829 77.9279 39.7802C77.9608 39.5478 77.9341 39.3112 77.8501 39.0912C77.6532 38.6178 77.1449 38.3141 76.961 37.8345C76.8182 37.4616 76.8809 36.9967 76.6105 36.7076C76.4669 36.5695 76.291 36.4668 76.0979 36.4081C75.1079 36.0348 74.0689 35.7972 73.011 35.7023C72.4183 35.6499 71.765 35.6206 71.341 35.2163C70.8456 34.7472 70.8218 33.9031 70.2421 33.5408C69.7316 33.2203 69.0091 33.457 68.6132 33.9073C68.5537 33.9735 68.4988 34.0435 68.4488 34.1167C68.3766 33.836 68.3611 33.5444 68.4034 33.258C68.4034 33.1868 68.4185 33.1135 68.425 33.0485C69.4017 32.7395 70.233 32.1039 70.7699 31.2557C70.7699 31.2557 70.7699 31.2557 70.7699 31.2682L70.7959 31.3332C70.8586 31.4861 70.9581 31.6327 71.1052 31.6494C71.2031 31.6483 71.2976 31.6151 71.3734 31.5552C71.5039 31.4674 71.6243 31.3662 71.7325 31.2536C71.7873 31.1949 71.8393 31.1342 71.8883 31.0713C71.988 30.9405 72.0735 30.8002 72.1435 30.6524C72.251 30.4302 72.3239 30.1937 72.3599 29.9508C72.3988 29.7078 72.4031 29.4586 72.4464 29.2156C72.4868 29.0276 72.5396 28.8422 72.6043 28.6606C72.6259 28.5998 72.6476 28.5391 72.667 28.4784C72.6865 28.4176 72.7146 28.3359 72.7363 28.2689C72.8716 27.8381 72.9444 27.3912 72.9526 26.941C72.9526 26.8656 72.9526 26.7902 72.9526 26.7148C72.9447 26.421 72.8764 26.1316 72.7516 25.8637C72.6267 25.5958 72.448 25.3546 72.2257 25.1544C71.8537 24.8591 71.3605 24.7355 71.0879 24.3355C70.9105 24.0674 70.8716 23.7218 70.7678 23.4076C70.6555 23.0316 70.4368 22.6936 70.1362 22.4319C69.8357 22.1701 69.4655 21.9952 69.0675 21.9268C68.5882 21.8759 68.107 22.004 67.722 22.2849L67.6917 22.308C67.4772 22.4666 67.2952 22.6627 67.1552 22.8861C66.8694 22.8098 66.6077 22.6659 66.3938 22.4672C66.1774 22.2724 66.0109 22.0273 65.7924 21.8388C65.5882 21.6578 65.3376 21.5331 65.0667 21.4778C64.7957 21.4226 64.5145 21.4387 64.2522 21.5246C63.9821 21.6294 63.7414 21.7947 63.55 22.007C63.3586 22.2192 63.2219 22.4724 63.1511 22.7457C63.0322 23.1772 63.0538 23.6736 62.805 24.0338C62.6125 24.3145 62.2967 24.4527 62.076 24.7083C61.9389 24.8701 61.8453 25.0622 61.8035 25.2675C61.7772 25.3823 61.7649 25.4997 61.7667 25.6173C61.7667 25.6696 61.7667 25.722 61.7797 25.7723C61.7797 25.7723 61.7797 25.789 61.7797 25.7974C61.7873 25.8548 61.7996 25.9115 61.8164 25.9671C61.8779 26.1794 61.9881 26.3756 62.1388 26.541C62.2815 26.6993 62.4599 26.824 62.6601 26.9054C62.742 26.9363 62.8258 26.9621 62.911 26.9829L63.1684 27.0394L63.2593 27.0604C62.9486 27.6251 62.7762 28.2514 62.7552 28.8909C62.7342 29.5305 62.8652 30.1661 63.1382 30.7488C63.1382 30.8074 63.123 30.8661 63.1165 30.9247C63.0813 31.7495 63.1189 32.5756 63.229 33.3941C63.2593 33.7188 63.2766 34.0769 63.0711 34.3346C62.9775 34.4359 62.8723 34.5266 62.7574 34.6048C62.8742 34.4581 62.9932 34.3136 63.1144 34.1691C62.8094 33.8717 62.327 33.834 61.8943 33.8633C61.057 33.9239 60.2441 34.1643 59.5148 34.5671C59.0302 34.8372 58.5327 35.1954 57.9789 35.1326C57.6523 35.097 57.33 34.9231 57.012 35.0069C56.8333 35.0777 56.6663 35.1737 56.5166 35.2917C56.3983 35.3739 56.2555 35.4166 56.1099 35.4132C55.7703 35.009 55.2446 34.7346 54.838 34.4058C54.3751 34.0069 53.9515 33.5672 53.5725 33.0925C52.8716 32.2736 52.1729 31.4525 51.485 30.6252C50.9053 29.9298 50.3104 29.1779 50.2087 28.2878C50.1983 28.1995 50.1933 28.1106 50.1936 28.0218C50.2077 27.5988 50.2627 27.1781 50.358 26.7651C50.3836 26.6654 50.3836 26.5611 50.358 26.4614C50.2931 26.2519 50.0443 26.1744 49.8302 26.1283C49.8583 25.9671 49.8778 25.8016 49.8886 25.6445C50.0097 23.8432 49.8778 22.0127 50.2715 20.2491C50.4207 19.5705 50.6652 18.8835 51.1692 18.3913C51.9587 17.6184 53.2805 17.432 53.8862 16.5167C54.3923 15.7543 54.1912 14.6757 53.5552 14.0033C52.9192 13.331 51.9393 13.0566 51.0069 13.0901C50.7453 13.0814 50.487 13.1485 50.265 13.2828C50.0574 13.4613 49.9022 13.6896 49.815 13.9447L48.887 16.1292C48.618 16.698 48.391 17.2845 48.2078 17.8844C47.9482 18.8018 47.8898 19.7695 47.6843 20.6952C47.6843 21.4074 47.2105 22.2954 46.9509 22.951C46.6611 23.6883 46.3474 24.4171 46.0857 25.1691C46.0208 25.3576 45.7936 25.9168 45.653 26.4258C45.5999 26.4557 45.5505 26.4916 45.5059 26.5326C45.393 26.6727 45.2903 26.8204 45.1988 26.9745C45.0019 27.2259 44.6818 27.3599 44.4654 27.6029C44.2491 27.8458 44.2037 28.292 44.5044 28.4134C44.5654 28.4333 44.6285 28.4467 44.6926 28.4532C44.732 28.4564 44.771 28.4627 44.8094 28.4721C45.1339 28.56 45.2615 28.9559 45.2139 29.2826C45.1663 29.6094 44.9976 29.911 44.9695 30.2377C44.9111 30.8158 45.2615 31.3541 45.5989 31.84C45.9483 32.3668 46.3342 32.8699 46.7541 33.346C47.0591 33.6769 47.4031 33.9743 47.7102 34.2927C48.8805 35.4572 49.8107 36.8186 50.862 38.0837C51.2402 38.5612 51.6703 38.9979 52.1448 39.3865C52.4546 39.6212 52.779 39.8373 53.1161 40.0337L54.9245 41.1438C55.1296 41.2893 55.3616 41.3952 55.6081 41.4558C55.6885 41.4663 55.7699 41.4663 55.8503 41.4558C55.8612 41.5082 55.8698 41.5585 55.8828 41.6108C56.0234 42.1596 56.3327 42.6581 56.3673 43.2173C56.402 43.7765 56.35 44.3483 56.3911 44.9138C56.4301 45.4354 56.5491 45.9611 56.5793 46.4742C56.6399 47.4628 56.389 48.4389 56.1467 49.4065C55.7811 50.8224 55.5605 52.2676 54.8488 53.5515C54.6498 53.9055 54.4161 54.2658 54.4161 54.67C54.4161 54.7182 54.4161 54.7684 54.4291 54.8166L54.1046 54.9946C54.0095 55.047 53.9143 55.0994 53.8278 55.1538C53.4167 55.4135 52.9776 55.7005 52.8089 56.1487C52.6726 56.5111 52.7353 56.9258 52.5709 57.2776C52.5631 57.2934 52.5544 57.3088 52.545 57.3237C52.3719 57.6505 52.028 57.8934 51.9501 58.2516C51.8917 58.526 52.0042 58.8171 51.9501 59.0894C51.9501 59.0894 51.9501 59.0894 51.9501 59.0998C51.9009 59.2366 51.8618 59.3766 51.8333 59.5187C51.831 59.5652 51.8353 59.6117 51.8463 59.657C51.8875 59.8157 51.9781 59.9583 52.1058 60.0654C52.1837 60.1378 52.2685 60.2031 52.3589 60.2602C52.4512 60.3188 52.5464 60.3733 52.6445 60.4236L52.7007 60.4529C52.7829 60.4948 52.8651 60.5346 52.9495 60.5723L53.0057 60.5953C53.1031 60.6372 53.2026 60.6749 53.3021 60.7084L53.3713 60.7294C53.4492 60.7545 53.5292 60.7775 53.6093 60.7964L53.6634 60.8131L53.7131 60.8236L53.9294 60.8676L54.0095 60.8823C54.1046 60.8976 54.202 60.9102 54.3015 60.92H54.388C54.4616 60.92 54.533 60.9304 54.6043 60.9325H54.706C54.7817 60.9325 54.8553 60.9325 54.9223 60.9325H55.0002C55.1019 60.9325 55.2035 60.9179 55.3052 60.9053H55.3377C55.4285 60.8927 55.5194 60.8781 55.6102 60.8592L55.6795 60.8446C55.7638 60.8257 55.8482 60.8069 55.9325 60.7817L55.978 60.7692C56.0796 60.7398 56.1813 60.7084 56.2808 60.6707C56.6251 60.5337 56.9591 60.3734 57.2802 60.1911C57.4965 60.0759 57.7129 59.9586 57.9292 59.8518C58.0896 59.7735 58.2542 59.7036 58.4224 59.6423C58.8315 59.4731 59.2766 59.4013 59.7203 59.4329C59.9393 59.4618 60.156 59.5044 60.3693 59.5606C60.3693 59.5837 60.3693 59.6067 60.3693 59.6298C60.5452 60.6351 60.719 61.6405 60.8906 62.6458C61.1738 62.4484 61.4733 62.274 61.7862 62.1243C61.7276 62.2761 61.6891 62.4344 61.6715 62.5956C61.6585 62.7202 61.6585 62.8458 61.6715 62.9705C61.691 63.1694 61.7342 63.3894 61.6109 63.5465C61.5352 63.6428 61.3946 63.6973 61.3535 63.8062C61.3235 63.9175 61.3161 64.0335 61.3319 64.1476C61.323 64.2778 61.2662 64.4006 61.1717 64.4936C61.0772 64.5866 60.9513 64.6437 60.817 64.6544C60.879 64.823 60.8804 65.0069 60.8212 65.1764C60.7619 65.3459 60.6454 65.4911 60.4904 65.5886C60.3999 65.6307 60.3155 65.6843 60.2395 65.7478C60.1655 65.8403 60.1158 65.9488 60.0945 66.064C59.8086 67.1013 59.2207 68.037 58.4007 68.7596C58.0931 68.9937 57.8125 69.2591 57.5636 69.5514C57.4098 69.7777 57.2828 70.0201 57.185 70.274C56.6082 71.6396 56.0227 73.0059 55.4285 74.3729C55.0997 75.1374 54.7796 75.9144 54.6757 76.7376C54.4161 78.9954 52.3395 80.9098 52.7288 83.1509C52.8075 83.7107 53.0407 84.2397 53.4038 84.682C53.8364 85.1868 54.4854 85.4758 55.1343 85.7104C56.8021 86.3387 58.5608 86.6822 60.313 87.0278L63.0646 87.5745C63.6045 87.6947 64.1524 87.7787 64.7043 87.8258C65.3684 87.8698 66.0498 87.8091 66.6966 87.9724C67.0968 88.073 67.4797 88.2594 67.8929 88.2803C68.2476 88.2992 68.6846 88.2259 68.8944 88.5065C69.1042 88.7872 68.942 89.1579 69.141 89.4072C69.4612 89.803 70.2421 89.4072 70.5904 89.78C70.6855 89.9232 70.7584 90.0791 70.8067 90.2429C70.8596 90.3441 70.9332 90.4339 71.023 90.5068C71.0442 90.625 71.0529 90.745 71.049 90.8649C71.0038 91.3513 70.8993 91.8308 70.7375 92.2934C70.4779 93.1437 70.219 93.9948 69.9609 94.8466C69.8623 95.1474 69.79 95.4556 69.7446 95.7681C69.7283 95.9199 69.7283 96.0729 69.7446 96.2247C69.79 96.6876 70.0647 97.1652 70.5211 97.316C70.8752 97.4066 71.2518 97.3616 71.5725 97.1903C71.8819 97.0339 72.1722 96.8442 72.4377 96.6248C72.9167 96.2739 73.3376 95.8544 73.6859 95.3806C74.7675 93.814 74.4171 91.6943 75.1764 89.9622C75.6804 88.806 76.6625 87.8677 76.9891 86.6487C77.0655 86.4168 77.0745 86.1689 77.0151 85.9324C76.8788 85.5135 76.418 85.2747 75.9876 85.1239H75.9681C75.6145 85.002 75.2532 84.902 74.8865 84.8244C74.7956 84.8056 74.7026 84.7909 74.6096 84.7762C74.4037 84.6141 74.24 84.4075 74.1315 84.173C74.1146 84.0484 74.0804 83.9265 74.0298 83.8107C73.9954 83.7607 73.9492 83.7195 73.8951 83.6904C73.8409 83.6612 73.7803 83.645 73.7183 83.6431C73.502 83.6222 73.2122 83.6976 72.9764 83.6808C72.494 83.6473 72.1738 83.1886 71.7412 82.9771C71.3086 82.7655 70.8391 82.8179 70.3784 82.8493C70.2136 82.8711 70.046 82.8612 69.8852 82.82C69.693 82.7343 69.5174 82.6174 69.366 82.4744C69.0997 82.2738 68.789 82.1359 68.4582 82.0715C68.1275 82.0072 67.7858 82.0182 67.4602 82.1037C67.2532 82.1846 67.0341 82.2327 66.8113 82.2461C66.3894 82.2231 66.0909 81.8586 65.7794 81.5821C64.9271 80.826 63.7136 80.627 62.6796 80.1306C62.5213 80.0736 62.3893 79.9637 62.3075 79.8207C62.1885 79.5358 62.4567 79.251 62.699 79.0562L64.4772 77.6256C66.4241 76.059 68.8576 74.8798 69.7619 72.5821C69.8561 72.274 70.0023 71.9832 70.1945 71.7213C70.2645 71.6413 70.3452 71.5709 70.4346 71.5118C70.828 71.265 71.3046 71.175 71.765 71.2605C72.326 71.3821 72.8576 71.6067 73.3311 71.9223C74.1056 72.3761 74.8591 72.8648 75.5917 73.3885C76.3173 73.8906 77.0075 74.4392 77.6575 75.0306C78.7932 76.0778 79.7385 77.3198 80.7963 78.4488C81.8541 79.5777 83.0634 80.6312 84.5322 81.1716C86.001 81.712 87.777 81.689 89.0381 80.782C90.4939 79.7348 90.9612 77.8623 91.3289 76.1448C92.1401 75.3866 92.3846 74.2326 92.7804 73.2125C93.0292 72.5653 93.3472 71.9558 93.6154 71.3107C93.9356 70.5525 94.1865 69.7692 94.4375 68.9879C94.7218 68.2034 94.9148 67.3906 95.0129 66.5646C95.1167 65.2597 94.7554 63.8711 95.134 62.6458C95.6337 62.539 96.088 62.2667 96.579 62.1075C97.3102 61.875 98.0933 61.9128 98.8677 61.9169H98.9174C99.1843 61.9444 99.4528 61.8831 99.6789 61.7431C99.9385 61.5336 99.9796 61.1755 99.9925 60.8508C100.023 60.0486 99.9709 59.148 99.3501 58.6286ZM68.0075 22.9007C67.8287 22.9436 67.6435 22.9563 67.4602 22.9384L68.0075 22.9007Z" fill="url(#paint0_linear_138_299)"/>
<path d="M68.8597 36.1504C68.5978 36.3658 68.2908 36.5237 67.9598 36.6132L66.4261 37.1453C65.5933 37.4343 64.7237 37.7254 63.8454 37.6207C63.3544 37.5621 61.2496 37.2625 60.9316 36.8918C60.447 36.3179 62.1451 35.4738 62.7249 34.99C62.8563 34.8985 62.978 34.7947 63.0883 34.68C63.3046 34.4245 63.2765 34.0663 63.2462 33.7437C63.1362 32.9266 63.0986 32.1018 63.1337 31.2785C63.1506 31.0822 63.1795 30.8871 63.2202 30.6941C63.4366 29.7306 64.3624 30.0825 65.0936 30.3381C65.9737 30.6149 66.8247 30.9718 67.6353 31.4042C67.8822 31.5274 68.0968 31.7036 68.2626 31.9194C68.5828 32.3886 68.4552 33.0044 68.4032 33.595C68.3578 34.0537 68.36 34.4936 68.6563 34.8266C68.8055 34.9539 68.9423 35.0942 69.0652 35.2455C69.1344 35.398 69.1518 35.5678 69.1149 35.7304C69.0779 35.893 68.9886 36.0401 68.8597 36.1504Z" fill="#FFB9B9"/>
<path d="M47.6745 21.0555C47.8908 20.1277 47.9384 19.1705 48.1979 18.251C48.3812 17.6532 48.6082 17.0688 48.8772 16.5021L49.8312 14.3469C49.9184 14.0925 50.0737 13.8648 50.2811 13.6872C50.5035 13.5538 50.7616 13.4868 51.0231 13.4945C51.9554 13.461 52.9354 13.7416 53.5713 14.4056C54.2073 15.0695 54.4085 16.144 53.9023 16.9043C53.2966 17.8196 51.9749 18.0039 51.1853 18.7746C50.6813 19.2668 50.4369 19.9517 50.2876 20.6283C49.8939 22.3876 50.0259 24.2119 49.9047 26.0089C49.8658 26.5682 49.7533 27.207 49.2558 27.496C48.9551 27.6387 48.6206 27.7016 48.2866 27.6782L46.8676 27.7013C46.6296 27.7013 45.7665 27.8458 45.6086 27.672C45.3317 27.3683 45.9634 25.856 46.078 25.5188C46.3333 24.7711 46.6469 24.0422 46.9433 23.3071C47.2007 22.6515 47.6745 21.7655 47.6745 21.0555Z" fill="#FFB9B9"/>
<path d="M76.9735 86.8561C76.6468 88.0667 75.6648 89.0092 75.1607 90.1633C74.4015 91.8913 74.7432 94.0047 73.6703 95.5672C73.3223 96.0418 72.9014 96.4621 72.4221 96.8134C72.1565 97.0322 71.8663 97.2212 71.5569 97.3769C71.2362 97.5482 70.8596 97.5932 70.5056 97.5025C70.0491 97.3517 69.7744 96.8742 69.729 96.4134C69.7127 96.2623 69.7127 96.11 69.729 95.9589C69.7744 95.6471 69.8468 95.3395 69.9453 95.0394C70.2049 94.1918 70.4637 93.3428 70.7219 92.4924C70.8834 92.0313 70.988 91.5532 71.0334 91.0682C71.0615 90.5403 70.7154 89.8533 70.8625 89.3611C70.9295 89.1391 71.1805 88.9422 71.2951 88.7558C71.4579 88.4875 71.583 88.1994 71.6672 87.8991C71.8446 87.3148 71.9657 86.6906 72.3378 86.1984C72.5805 85.9065 72.8645 85.6491 73.1814 85.4339C73.4153 85.2354 73.6894 85.0863 73.9861 84.9961C74.274 84.9471 74.5696 84.9607 74.8514 85.0359C75.2183 85.1118 75.5796 85.2112 75.933 85.3334H75.9524C76.3851 85.4842 76.8437 85.7166 76.98 86.1397C77.0462 86.3745 77.0439 86.6225 76.9735 86.8561Z" fill="#3F3D56"/>
<path d="M99.9911 61.1066C99.9781 61.4313 99.937 61.7936 99.6774 61.9968C99.4514 62.1368 99.1829 62.1981 98.916 62.1706H98.8576C98.0853 62.1706 97.3001 62.1287 96.5689 62.3612C96.013 62.5392 95.5025 62.866 94.9228 62.9309C94.1245 63.0189 93.3739 62.5958 92.6665 62.2272C92.0005 61.8798 91.3168 61.5652 90.618 61.2846C90.1594 61.1024 89.2227 60.9851 89.0021 60.4992C88.9265 60.2693 88.863 60.0358 88.8117 59.7997C88.7754 59.6941 88.7313 59.5912 88.6798 59.4918C88.55 59.2796 88.4675 59.0434 88.4375 58.7985C88.4384 58.5544 88.5254 58.3179 88.6841 58.1283C88.8606 57.926 89.0766 57.7595 89.3198 57.6384C89.5629 57.5172 89.8284 57.4439 90.101 57.4224C90.6461 57.3814 91.1945 57.4096 91.732 57.5062L97.0578 58.2477C97.4688 58.3042 97.882 58.3608 98.2865 58.4571C98.6707 58.5216 99.0329 58.6754 99.3422 58.9053C99.9716 59.4164 100.024 60.3149 99.9911 61.1066Z" fill="#3F3D56"/>
<path d="M95.3104 62.4471C94.6614 63.7729 95.1286 65.3416 95.0118 66.8078C94.9138 67.6317 94.7208 68.4425 94.4364 69.2248C94.1855 70.004 93.9346 70.7852 93.6144 71.5414C93.3462 72.1697 93.0282 72.7981 92.7794 73.439C92.3836 74.4611 92.1305 75.611 91.3279 76.3713C90.9602 78.0846 90.4929 79.9571 89.0371 80.9959C87.7716 81.9007 86.0086 81.9322 84.5311 81.3855C83.0537 80.8388 81.8531 79.7916 80.7953 78.6627C79.7375 77.5337 78.7922 76.3043 77.6565 75.2528C77.0056 74.6613 76.314 74.1134 75.5863 73.6128C74.8537 73.0976 74.1002 72.613 73.3257 72.1592C72.8517 71.8451 72.3201 71.6212 71.7596 71.4995C71.2993 71.414 70.8226 71.504 70.4292 71.7508C70.3399 71.8099 70.2591 71.8803 70.1891 71.9603C69.9966 72.2212 69.8503 72.5114 69.7565 72.819C68.8479 75.1104 66.41 76.2875 64.4631 77.85L62.685 79.2764C62.4427 79.4711 62.1744 79.756 62.2934 80.0387C62.3753 80.1818 62.5072 80.2917 62.6655 80.3487C63.6995 80.843 64.9131 81.042 65.7654 81.796C66.0769 82.0725 66.3754 82.4369 66.7972 82.4579C67.0199 82.4452 67.2391 82.3978 67.4462 82.3176C67.7717 82.2323 68.1131 82.2212 68.4438 82.2852C68.7744 82.3491 69.0853 82.4864 69.3519 82.6862C69.5034 82.8292 69.679 82.9461 69.8711 83.0318C70.0319 83.073 70.1995 83.0829 70.3643 83.0611C70.8251 83.0297 71.314 82.9899 71.7272 83.1889C72.1403 83.3878 72.4799 83.857 72.9623 83.8905C73.1981 83.9073 73.4793 83.8319 73.7043 83.8528C73.7663 83.8547 73.8268 83.8709 73.881 83.9001C73.9352 83.9292 73.9814 83.9705 74.0158 84.0204C74.0663 84.1355 74.1005 84.2567 74.1175 84.3806C74.2062 84.676 74.5047 84.8561 74.6994 85.0991C74.9979 85.4719 75.0412 85.9787 75.0109 86.45C74.9129 87.9236 74.2346 89.3045 73.1159 90.3081C72.7983 90.6224 72.3933 90.8407 71.95 90.9364C71.728 90.9814 71.497 90.9577 71.2897 90.8686C71.0824 90.7795 70.9093 90.6296 70.7948 90.44C70.7465 90.2769 70.6737 90.1217 70.5785 89.9792C70.2302 89.6085 69.4493 90.0023 69.1291 89.6064C68.9301 89.3593 69.0729 88.9634 68.8825 88.7079C68.6922 88.4523 68.2336 88.4984 67.881 88.4838C67.4678 88.4628 67.0849 88.2743 66.6847 88.1759C66.0358 88.0125 65.3565 88.0732 64.6924 88.0293C64.1405 87.9821 63.5926 87.8982 63.0527 87.7779L60.3011 87.2333C58.5489 86.8878 56.7903 86.538 55.1224 85.9201C54.4843 85.6855 53.8418 85.3965 53.3919 84.8938C53.0292 84.4521 52.796 83.9239 52.7169 83.3648C52.3254 81.13 54.4021 79.2198 54.6638 76.9682C54.7568 76.1472 55.0965 75.3722 55.4166 74.6098C56.0036 73.247 56.5891 71.8835 57.1731 70.5192C57.2676 70.2652 57.391 70.0222 57.5409 69.7946C57.7898 69.503 58.0705 69.2382 58.378 69.0049C59.1978 68.2847 59.7858 67.351 60.0718 66.3156C60.0931 66.2004 60.1428 66.0919 60.2168 65.9993C60.2934 65.9372 60.3777 65.8844 60.4677 65.8422C60.6222 65.7448 60.7384 65.6 60.7977 65.431C60.8569 65.2619 60.8557 65.0785 60.7943 64.9102C60.9286 64.8994 61.0545 64.8423 61.149 64.7493C61.2435 64.6563 61.3003 64.5335 61.3092 64.4033C61.2934 64.2899 61.3008 64.1747 61.3308 64.064C61.3827 63.9551 61.5125 63.9006 61.5882 63.8043C61.7115 63.6472 61.6683 63.4273 61.6488 63.2304C61.6358 63.1057 61.6358 62.9801 61.6488 62.8555C61.6962 62.412 61.9011 61.9981 62.2285 61.6847C62.7455 61.1924 63.481 61.3202 64.1949 61.2029C64.907 61.0541 65.6024 60.8388 66.2716 60.5599C68.1486 59.8438 70.1249 59.4012 72.136 59.2467C74.1571 59.0928 76.1871 59.4057 78.0588 60.1599C78.3311 60.2666 78.5879 60.4075 78.8224 60.5788C78.989 60.7031 79.1256 60.861 79.2226 61.0416C79.3025 61.2634 79.4009 61.4784 79.5168 61.6847C79.7483 61.9905 80.1853 62.0889 80.4384 62.3779C80.6914 62.667 80.7131 63.155 80.9229 63.5132C81.2236 64.0242 81.9201 64.2609 82.1278 64.8159C82.1927 64.9919 82.2014 65.1846 82.2489 65.3668C82.3658 65.8234 82.7162 66.1836 83.0255 66.5439C84.1596 67.8572 84.8857 69.455 85.1195 71.1518C85.1887 70.0899 85.9264 69.1494 86.8501 68.563C87.0988 68.4059 87.3866 68.2321 87.4363 67.9472C87.499 67.5869 87.1378 67.2665 87.1616 66.9C87.1879 66.721 87.2625 66.5519 87.3779 66.4098C87.7902 65.8313 88.2426 65.2806 88.7321 64.7615C88.9981 64.4787 89.2967 64.1331 89.1863 63.7603C89.102 63.4817 88.8078 63.3184 88.6455 63.0754C88.5509 62.9306 88.5024 62.7619 88.5063 62.5905C88.5101 62.4191 88.5661 62.2527 88.6672 62.1119C88.8186 61.913 89.0587 61.7684 89.1323 61.5318C89.2166 61.2532 89.0284 60.9516 89.0868 60.6646C89.1659 60.4348 89.323 60.2377 89.5325 60.1054C89.8195 59.8524 90.1458 59.6446 90.4994 59.4896C91.0705 59.2802 91.7065 59.3577 92.3122 59.4394C93.3245 59.5755 94.4602 59.7849 95.0313 60.606C95.3969 61.1191 95.5829 61.8983 95.3104 62.4471Z" fill="#3F3D56"/>
<path opacity="0.1" d="M99.9898 61.1065C99.9768 61.4311 99.9357 61.7935 99.6762 61.9966C99.4501 62.1367 99.1816 62.198 98.9147 62.1705H98.8563C98.945 61.7348 99.4923 61.4856 99.5875 61.0436C99.6037 60.9079 99.591 60.7703 99.5501 60.6395C99.5092 60.5087 99.4409 60.3875 99.3495 60.2833C98.8866 59.678 98.1425 59.3429 97.4026 59.0978C95.3126 58.404 93.0735 58.2417 90.9001 58.6265C90.3091 58.7197 89.7341 58.891 89.1911 59.1355C89.0112 59.2445 88.8379 59.3634 88.672 59.4916C88.5422 59.2794 88.4597 59.0432 88.4297 58.7983C88.4305 58.5542 88.5176 58.3177 88.6763 58.128C88.8528 57.9258 89.0688 57.7593 89.312 57.6381C89.5551 57.517 89.8206 57.4436 90.0932 57.4222C90.6383 57.3812 91.1867 57.4093 91.7242 57.506L97.05 58.2474C97.461 58.304 97.8742 58.3605 98.2787 58.4569C98.6629 58.5214 99.0251 58.6752 99.3344 58.9051C99.9704 59.4162 100.022 60.3147 99.9898 61.1065Z" fill="black"/>
<path opacity="0.1" d="M76.9735 86.8561C76.6469 88.0667 75.6648 89.0092 75.1607 90.1633C74.4015 91.8913 74.7432 94.0047 73.6703 95.5672C73.3223 96.0418 72.9014 96.4621 72.4221 96.8135C72.1565 97.0322 71.8663 97.2212 71.5569 97.3769C71.2362 97.5482 70.8596 97.5932 70.5056 97.5026C70.0491 97.3518 69.7744 96.8742 69.729 96.4134C69.7127 96.2623 69.7127 96.11 69.729 95.9589L69.7419 95.9924C69.9301 96.4323 70.2373 96.8931 70.7219 96.9706C70.9038 96.9832 71.0864 96.9595 71.2583 96.9007C71.4303 96.842 71.5879 96.7495 71.7213 96.6291C72.4351 96.0741 72.8505 95.2468 73.2463 94.4487C73.5561 93.8733 73.8012 93.2673 73.9775 92.6412C74.064 92.2851 74.1051 91.9206 74.1938 91.5646C74.6048 89.8345 76.0044 88.4228 76.3137 86.6696C76.3389 86.549 76.3447 86.4254 76.331 86.3031C76.2902 86.1436 76.2277 85.99 76.145 85.8465C76.0698 85.6844 76.0146 85.5142 75.9806 85.3396C76.4132 85.4904 76.8718 85.7229 77.0081 86.146C77.064 86.3813 77.052 86.6269 76.9735 86.8561Z" fill="black"/>
<path opacity="0.1" d="M73.7075 83.8528C73.5072 84.3596 73.1703 84.8052 72.7319 85.1431C72.116 85.5974 71.3951 85.8993 70.6314 86.0227C70.276 86.1105 69.903 86.1062 69.5498 86.0102C69.0696 85.8489 68.7235 85.4132 68.2324 85.2876C67.882 85.1954 67.5056 85.2771 67.1508 85.2268C66.5127 85.141 66.0173 84.6697 65.5025 84.2927C63.9255 83.1449 61.8553 82.7742 60.2784 81.6264C60.2081 81.5846 60.1501 81.5262 60.1096 81.4567C60.0794 81.3815 60.0683 81.3003 60.0772 81.22C60.083 80.5238 60.2446 79.8371 60.5509 79.2072C60.8018 78.7677 61.1005 78.3555 61.4422 77.9777C62.8547 76.3021 64.2738 74.6139 65.9654 73.2001C66.6749 72.6074 67.4494 72.0544 68.3449 71.7863C68.8425 71.6376 69.8246 71.4973 70.4302 71.7486C70.3409 71.8077 70.2601 71.8781 70.1901 71.9581C69.9976 72.219 69.8513 72.5093 69.7575 72.8168C68.8468 75.1103 66.4089 76.2874 64.462 77.8499L62.6838 79.2763C62.4416 79.4711 62.1733 79.7559 62.2923 80.0387C62.3741 80.1817 62.5061 80.2917 62.6644 80.3487C63.6984 80.843 64.9119 81.042 65.7642 81.796C66.0757 82.0725 66.3742 82.4369 66.7961 82.4579C67.0188 82.4452 67.2379 82.3978 67.445 82.3175C67.7705 82.2323 68.112 82.2212 68.4426 82.2852C68.7733 82.3491 69.0841 82.4864 69.3508 82.6862C69.5022 82.8292 69.6778 82.9461 69.87 83.0318C70.0308 83.073 70.1984 83.0829 70.3632 83.0611C70.824 83.0297 71.3128 82.9899 71.726 83.1889C72.1392 83.3879 72.4788 83.857 72.9612 83.8905C73.2013 83.9073 73.4825 83.8277 73.7075 83.8528Z" fill="black"/>
<path d="M53.8125 55.4264C53.4015 55.6819 52.9645 55.971 52.7958 56.415C52.6573 56.7773 52.7222 57.192 52.5557 57.5439C52.3891 57.8958 52.0149 58.1408 51.9327 58.5178C51.8743 58.7922 51.9889 59.0812 51.9327 59.3556C51.8837 59.4983 51.8439 59.6437 51.8137 59.7912C51.7921 60.1033 52.0689 60.3567 52.3393 60.5306C52.915 60.8931 53.5705 61.1198 54.2531 61.1926C54.9358 61.2653 55.6265 61.1821 56.2699 60.9494C56.8474 60.74 57.3688 60.3986 57.9226 60.1305C58.4626 59.8294 59.0803 59.6841 59.7029 59.7116C60.0598 59.7493 60.4016 59.875 60.7585 59.9211C60.9348 59.9548 61.1169 59.9465 61.2891 59.8969C61.4613 59.8472 61.6185 59.7578 61.7471 59.6362C61.8573 59.4889 61.9313 59.3191 61.9634 59.1399C62.2641 57.99 62.1278 56.771 61.8423 55.6149C61.5567 54.4588 61.1241 53.3467 60.8191 52.1968C60.6027 51.3444 60.4362 50.471 60.0749 49.6646C59.7137 48.8583 59.1058 48.1085 58.2557 47.8006C58.1886 47.7687 58.1126 47.7592 58.0394 47.7734C57.9848 47.7955 57.9366 47.8299 57.8987 47.8739C57.2263 48.5639 56.7195 49.3892 56.4148 50.2909C56.0752 51.2941 55.9822 52.3581 55.6707 53.3655C55.5365 53.7844 55.3635 54.3457 55.0217 54.6661C54.6799 54.9866 54.1997 55.1856 53.8125 55.4264Z" fill="#3F3D56"/>
<path opacity="0.1" d="M61.9694 59.1334C61.9331 59.3132 61.8555 59.4829 61.7423 59.6298C61.6141 59.7517 61.4568 59.8413 61.2844 59.8906C61.1121 59.9399 60.9298 59.9474 60.7537 59.9125C60.399 59.8706 60.0572 59.7429 59.7002 59.7031C59.0777 59.6752 58.4599 59.8205 57.9199 60.122C57.3662 60.3901 56.8384 60.7231 56.2651 60.9388C55.4265 61.2467 54.5104 61.2972 53.6412 61.0833C53.1795 60.971 52.7407 60.7841 52.3433 60.5304C52.0707 60.3586 51.796 60.1115 51.8176 59.791C51.8479 59.6442 51.8876 59.4994 51.9366 59.3575C51.9928 59.0831 51.8803 58.794 51.9366 58.5197C52.0188 58.1427 52.3952 57.8913 52.5596 57.5436C52.724 57.1959 52.6613 56.7791 52.7975 56.4168C52.9663 55.9706 53.4054 55.6837 53.8164 55.4261C54.2274 55.1684 54.7163 54.9716 55.0451 54.6595C55.0875 54.6109 55.1259 54.5591 55.1597 54.5045C55.3968 54.1504 55.5709 53.7603 55.6746 53.3504C55.9926 52.3409 56.0791 51.2789 56.4165 50.2736C56.7226 49.3726 57.23 48.5481 57.9026 47.8586C57.9386 47.8137 57.9864 47.7789 58.0411 47.7581C58.1141 47.7437 58.19 47.7525 58.2574 47.7832C59.1054 48.0932 59.7132 48.843 60.0766 49.6494C60.4401 50.4558 60.5936 51.325 60.8208 52.1796C61.1236 53.3295 61.5584 54.4458 61.844 55.5999C62.1295 56.754 62.2701 57.9814 61.9694 59.1334Z" fill="black"/>
<path opacity="0.1" d="M68.4043 33.5891C67.3871 33.902 66.2864 33.8399 65.3137 33.4146C64.341 32.9894 63.5649 32.231 63.1348 31.2853C63.1516 31.0891 63.1805 30.894 63.2213 30.701C63.4376 29.7376 64.3635 30.0895 65.0946 30.345C65.9748 30.6218 66.8258 30.9787 67.6364 31.411C67.8833 31.5342 68.0979 31.7105 68.2637 31.9262C68.5839 32.3891 68.4562 33.0048 68.4043 33.5891Z" fill="black"/>
<path d="M67.0959 33.5762C69.4853 33.5762 71.4223 31.7008 71.4223 29.3874C71.4223 27.074 69.4853 25.1986 67.0959 25.1986C64.7065 25.1986 62.7695 27.074 62.7695 29.3874C62.7695 31.7008 64.7065 33.5762 67.0959 33.5762Z" fill="#FFB9B9"/>
<path opacity="0.1" d="M78.837 60.6919C78.837 61.0396 78.3503 61.1506 77.989 61.1317C76.6911 61.0584 75.4213 60.7128 74.1363 60.8175C72.5118 60.96 71.0192 61.8292 69.3903 61.9088C68.763 61.9402 68.1248 61.8502 67.5062 61.9612C66.7058 62.1057 65.9919 62.577 65.1764 62.644C64.469 62.7026 63.7703 62.445 63.063 62.4722C62.5684 62.5008 62.0863 62.6338 61.6504 62.8618C61.6978 62.4183 61.9027 62.0045 62.2301 61.691C62.7471 61.1987 63.4826 61.3265 64.1965 61.2092C64.9085 61.0604 65.604 60.8451 66.2731 60.5662C68.1501 59.8501 70.1264 59.4075 72.1376 59.2529C74.1574 59.0973 76.1866 59.4082 78.0582 60.1598C78.3305 60.2666 78.5873 60.4075 78.8218 60.5788C78.8336 60.6153 78.8388 60.6536 78.837 60.6919Z" fill="black"/>
<path d="M65.0972 37.0364L63.345 36.408L62.6052 36.1441C62.3038 36.0218 61.9864 35.9401 61.6621 35.9012C60.8141 35.8383 60.0159 36.385 59.5638 37.0825C59.1116 37.7799 58.9408 38.6114 58.7958 39.422C58.5968 40.5307 58.4281 41.6436 58.2896 42.7606C58.1405 43.7694 58.0646 44.787 58.0625 45.806C58.1123 48.399 58.679 50.9564 59.302 53.4803C59.6072 54.5993 59.8377 55.7362 59.9921 56.8838C60.044 57.3572 60.0678 57.8327 60.1197 58.3081C60.1759 58.8422 60.2668 59.37 60.3577 59.8999L60.879 62.9097C61.5279 62.4636 62.2656 62.0719 63.0638 62.0489C63.7712 62.0237 64.472 62.2793 65.1772 62.2206C65.9884 62.1557 66.7066 61.6844 67.507 61.5399C68.1257 61.4289 68.7638 61.5169 69.3933 61.4876C71.02 61.408 72.5148 60.5367 74.1372 60.3963C75.4243 60.2832 76.7027 60.6351 77.992 60.7084C78.3511 60.7293 78.8378 60.6183 78.8378 60.2686C78.8378 60.0256 78.5869 59.8643 78.3684 59.7428C77.3385 59.1424 76.3585 58.4653 75.4373 57.7175C74.585 57.064 73.7197 56.3937 73.1335 55.5099C71.7209 53.3839 72.2055 50.5082 71.0006 48.265C70.0206 46.4428 71.0006 44.055 71.0006 42.0003C71.0006 40.9761 71.0006 39.9394 70.7518 38.9445C70.5963 38.388 70.4026 37.8422 70.1721 37.3108L69.3306 35.2477C69.3131 35.1874 69.2787 35.133 69.2311 35.0906C69.1745 35.0529 69.1072 35.0331 69.0386 35.034C68.5332 35.0047 68.0348 35.1593 67.6411 35.4676C67.2453 35.7797 66.9922 36.2279 66.6028 36.5526C66.1766 36.9107 65.6272 37.2249 65.0972 37.0364Z" fill="#00A344"/>
<path d="M67.9229 35.8468C68.0613 35.2729 68.2106 34.6759 68.6065 34.2277C69.0023 33.7795 69.7248 33.5428 70.2354 33.8633C70.8151 34.2277 70.8389 35.0697 71.3343 35.5389C71.7669 35.941 72.4158 35.9724 73.0042 36.0248C74.0622 36.118 75.1013 36.3549 76.0911 36.7285C76.2842 36.7865 76.46 36.8885 76.6038 37.026C76.8742 37.3234 76.8201 37.78 76.9542 38.1507C77.1381 38.6283 77.6465 38.932 77.8433 39.4074C78.0596 39.9352 77.8433 40.5259 77.6616 41.0683C77.335 42.0423 77.1295 43.0539 76.8115 44.0321C76.4935 45.0102 76.0414 45.9737 75.2972 46.7109C74.9684 47.0377 74.4795 47.3393 74.0469 47.1445L73.8803 48.3069C73.8317 48.5526 73.8317 48.8049 73.8803 49.0505C73.9055 49.1734 73.9659 49.2869 74.0547 49.3781C74.1434 49.4692 74.257 49.5342 74.3822 49.5657C74.4146 49.7459 74.6115 49.8317 74.7716 49.9302C74.8897 50.0084 74.9907 50.1086 75.0686 50.2249C75.1464 50.3412 75.1997 50.4713 75.2253 50.6077C75.2508 50.7441 75.2482 50.884 75.2174 51.0194C75.1867 51.1548 75.1285 51.2829 75.0463 51.3963C74.91 51.5744 74.7088 51.7147 74.6439 51.9262C74.5466 52.232 74.7781 52.5546 75.0593 52.7221C75.3405 52.8897 75.6715 52.9672 75.957 53.1285C76.5497 53.4594 76.8677 54.1108 77.071 54.7433C77.2225 55.2209 77.3479 55.7382 77.72 56.0859C77.8628 56.2179 78.0337 56.3184 78.1699 56.4566C78.4058 56.7265 78.5421 57.0648 78.5572 57.418C78.6164 57.8558 78.517 58.2999 78.2759 58.6747C77.8433 59.2737 77.0364 59.4518 76.3291 59.722C75.1804 60.1786 74.2351 60.9954 73.2227 61.6908C72.8104 62.0123 72.3246 62.2335 71.8058 62.3359C71.105 62.426 70.4149 62.1265 69.7097 62.0992C69.2878 62.103 68.8679 62.1565 68.4594 62.2584L67.1614 62.5307C67.2307 61.5568 66.6769 60.5807 66.3676 59.6528C65.7835 57.906 65.6753 56.0377 65.8138 54.2071C65.9522 52.3766 66.3373 50.5711 66.718 48.774C66.9841 47.5173 66.9581 46.2041 67.367 44.983C67.7498 43.808 68.2971 42.679 68.4983 41.4558C68.8271 39.4765 67.46 37.7988 67.9229 35.8468Z" fill="#3F3D56"/>
<path d="M77.7628 39.7198C77.8822 39.9326 77.9662 40.1623 78.0116 40.4005C78.1116 40.7694 78.299 41.1108 78.5589 41.3974C78.7765 41.5833 78.9698 41.7943 79.1343 42.0258C79.3333 42.3902 79.2576 42.8343 79.3506 43.2322C79.4588 43.6658 79.7725 44.0428 79.8179 44.4889C79.8192 44.6167 79.8315 44.7443 79.8547 44.8701C79.9953 45.377 80.7654 45.4985 80.9363 46.0053C81.0509 46.3342 80.8541 46.6923 80.8908 47.0379C80.9177 47.1448 80.9243 47.2555 80.9103 47.3647C80.8614 47.4881 80.7755 47.5946 80.6637 47.6704C79.9478 48.3327 79.4522 49.1866 79.2403 50.1231C79.0319 51.0545 78.9224 52.004 78.9137 52.9569L78.0679 51.8741C77.9783 51.7427 77.8638 51.629 77.7304 51.539C77.6222 51.4761 77.4968 51.4447 77.3865 51.3819C77.0663 51.206 76.9408 50.8331 76.8175 50.498C76.475 49.5703 75.962 48.7103 75.3033 47.9595C74.9593 47.5678 74.5592 47.1741 74.4834 46.6651C74.4608 46.4313 74.4739 46.1956 74.5224 45.9655C74.7387 44.5936 74.9702 43.1882 75.6602 41.9713C75.9825 41.4016 76.4 40.8864 76.7094 40.3083C76.917 39.925 77.2091 38.928 77.7628 39.7198Z" fill="#3F3D56"/>
<path d="M56.4238 41.037C56.4278 41.2133 56.3814 41.3872 56.2897 41.5396C56.2069 41.6324 56.0992 41.7011 55.9785 41.7381C55.8578 41.7751 55.7289 41.7789 55.6061 41.7491C55.3598 41.6892 55.1277 41.584 54.9226 41.4391C54.3197 41.0705 53.7169 40.7011 53.1141 40.3311C52.7776 40.1347 52.4532 39.9193 52.1428 39.686C51.6684 39.2982 51.2383 38.8621 50.8601 38.3853C49.8087 37.1286 48.8786 35.7651 47.7083 34.6152C47.3903 34.301 47.0593 33.9994 46.7521 33.6706C46.3323 33.1953 45.9464 32.6928 45.597 32.1667C45.2595 31.6829 44.9091 31.1467 44.9675 30.5686C45.0021 30.2419 45.1644 29.9403 45.212 29.6156C45.2595 29.291 45.1319 28.8951 44.8074 28.8072C44.7691 28.7978 44.73 28.7915 44.6906 28.7883C44.6266 28.7817 44.5635 28.7684 44.5024 28.7485C44.2017 28.627 44.2472 28.1767 44.4635 27.94C44.6798 27.7034 45 27.5714 45.1968 27.3117C45.2884 27.1576 45.391 27.0099 45.504 26.8697C45.6488 26.7495 45.8219 26.6654 46.008 26.6247C47.2558 26.2686 48.5757 26.2204 49.8477 26.4844C50.064 26.5304 50.3106 26.6142 50.3755 26.8174C50.4014 26.9163 50.4014 27.02 50.3755 27.119C50.2801 27.532 50.2251 27.9527 50.2111 28.3757C50.2108 28.4639 50.2158 28.552 50.2262 28.6396C50.3279 29.5277 50.9228 30.2796 51.5025 30.9729C52.1904 31.7981 52.8891 32.6171 53.59 33.4339C53.9691 33.9073 54.3927 34.3455 54.8555 34.743C55.2881 35.0907 55.8484 35.3713 56.1859 35.8175C56.4606 36.1777 56.3719 36.6699 56.4022 37.1035C56.5028 38.4126 56.51 39.7269 56.4238 41.037Z" fill="#3F3D56"/>
<path d="M83.8966 49.7751C84.1103 49.5739 84.303 49.353 84.472 49.1153C84.6538 48.8208 84.7991 48.5066 84.9047 48.1791L86.1593 44.7336C86.3583 44.1891 86.5573 43.6424 86.8083 43.1125C87.0678 42.5407 87.375 41.9899 87.6584 41.4369C88.3872 39.9818 88.9508 38.4543 89.3392 36.8814C89.4075 36.6653 89.4303 36.4381 89.4062 36.2133C89.3457 35.8509 89.0623 35.5682 88.7919 35.3105C88.52 35.0262 88.2101 34.7782 87.8704 34.5733C87.6998 34.4706 87.5098 34.4017 87.3115 34.3708C87.1132 34.3399 86.9105 34.3475 86.7152 34.3932C86.1615 34.5502 85.8132 35.099 85.6856 35.6498C85.5579 36.2007 85.6055 36.7641 85.5514 37.3254C85.4736 38.1297 85.188 38.9068 85.1188 39.7131C85.082 40.1802 85.1188 40.6515 85.0604 41.1164C84.9539 41.727 84.7341 42.3139 84.4114 42.8486C83.7086 44.1223 82.759 45.2529 81.6144 46.1788C81.3009 46.4029 81.0188 46.6655 80.7751 46.9601C80.5717 47.2547 80.4339 47.5871 80.3706 47.9361C80.2269 48.4676 80.2892 49.0316 80.5458 49.5216C80.8984 50.1039 81.5755 50.3594 82.2223 50.4893C83.0962 50.6652 83.2974 50.3762 83.8966 49.7751Z" fill="#FFB9B9"/>
<path d="M67.1227 23.3176C67.3089 22.9788 67.5941 22.7005 67.9426 22.5177C68.2912 22.3348 68.6876 22.2553 69.0825 22.2892C69.4802 22.3574 69.8503 22.5321 70.1508 22.7934C70.4513 23.0547 70.6702 23.3923 70.7828 23.7679C70.8845 24.08 70.9256 24.4256 71.1029 24.6936C71.3712 25.0979 71.8687 25.2152 72.2408 25.5084C72.463 25.7082 72.6417 25.949 72.7665 26.2165C72.8913 26.4841 72.9597 26.7731 72.9676 27.0666C72.9883 27.6662 72.8907 28.264 72.6799 28.8281C72.5905 29.0687 72.5182 29.3151 72.4636 29.5653C72.4203 29.8083 72.416 30.0554 72.3771 30.2984C72.3291 30.6134 72.2166 30.916 72.0461 31.1882C71.8755 31.4605 71.6505 31.697 71.3842 31.8839C71.3083 31.9437 71.2138 31.977 71.1159 31.9781C70.9472 31.9593 70.8434 31.7687 70.7806 31.5969C70.4367 30.6356 70.5189 29.4606 69.8851 28.694C69.5967 28.3848 69.2483 28.1336 68.8597 27.9547C68.7013 27.8557 68.5227 27.7907 68.3362 27.7641C68.0619 27.7784 67.7982 27.8717 67.5791 28.0322C67.1225 28.3287 66.6159 28.5456 66.0822 28.6731C65.8158 28.7342 65.5387 28.7369 65.2712 28.6811C65.0036 28.6253 64.7522 28.5124 64.5355 28.3505C64.237 28.1118 64.0185 27.7536 63.6875 27.5672C63.3565 27.3808 63.0104 27.3913 62.6838 27.2635C62.4756 27.1778 62.2904 27.0472 62.1423 26.8817C61.9941 26.7161 61.887 26.52 61.829 26.3083C61.771 26.0966 61.7637 25.8749 61.8076 25.6601C61.8515 25.4452 61.9455 25.2429 62.0824 25.0685C62.2987 24.8172 62.6189 24.6748 62.8114 24.3962C63.0602 24.036 63.0385 23.5417 63.1575 23.1102C63.2279 22.8373 63.3645 22.5845 63.556 22.3729C63.7475 22.1612 63.9884 21.9969 64.2586 21.8934C64.5207 21.8072 64.8018 21.7907 65.0727 21.8456C65.3437 21.9005 65.5944 22.0248 65.7988 22.2054C66.0151 22.3939 66.1882 22.6369 66.4002 22.8338C66.6094 23.0278 66.8657 23.1678 67.1453 23.2409C67.425 23.3141 67.7192 23.3182 68.0009 23.2527" fill="#3F3D56"/>
<path opacity="0.1" d="M70.6776 54.1464C70.5517 54.255 70.4624 54.3978 70.4215 54.5561C70.3806 54.7145 70.39 54.8812 70.4483 55.0344C70.4959 55.1328 72.7283 54.716 72.9641 54.6846C73.5525 54.6029 74.5844 54.6427 74.9802 54.1213C75.6854 53.1977 73.5006 53.4029 73.1004 53.4364C72.339 53.4992 71.2574 53.5998 70.6776 54.1464Z" fill="black"/>
<path d="M50.3717 27.1274C50.2763 27.5404 50.2212 27.9612 50.2073 28.3842C49.5583 28.5119 48.8834 28.3025 48.2604 28.093L46.4714 27.5023C46.3626 27.435 46.2314 27.4103 46.1044 27.4333C45.9774 27.4562 45.8642 27.5251 45.7878 27.6259C45.5001 27.915 45.1043 28.4638 44.7062 28.7884C44.6422 28.7818 44.5791 28.7685 44.518 28.7486C44.2174 28.6271 44.2628 28.1768 44.4791 27.9401C44.6954 27.7034 45.0156 27.5715 45.2124 27.3117C45.304 27.1576 45.4066 27.0099 45.5196 26.8698C45.6645 26.7495 45.8375 26.6654 46.0236 26.6247C47.2714 26.2686 48.5914 26.2204 49.8633 26.4844C50.0796 26.5304 50.3262 26.6142 50.3911 26.8174C50.4122 26.9206 50.4055 27.0274 50.3717 27.1274Z" fill="#3F3D56"/>
<path opacity="0.1" d="M50.3717 27.1274C50.2763 27.5404 50.2212 27.9612 50.2073 28.3842C49.5583 28.5119 48.8834 28.3025 48.2604 28.093L46.4714 27.5023C46.3626 27.435 46.2314 27.4103 46.1044 27.4333C45.9774 27.4562 45.8642 27.5251 45.7878 27.6259C45.5001 27.915 45.1043 28.4638 44.7062 28.7884C44.6422 28.7818 44.5791 28.7685 44.518 28.7486C44.2174 28.6271 44.2628 28.1768 44.4791 27.9401C44.6954 27.7034 45.0156 27.5715 45.2124 27.3117C45.304 27.1576 45.4066 27.0099 45.5196 26.8698C45.6645 26.7495 45.8375 26.6654 46.0236 26.6247C47.2714 26.2686 48.5914 26.2204 49.8633 26.4844C50.0796 26.5304 50.3262 26.6142 50.3911 26.8174C50.4122 26.9206 50.4055 27.0274 50.3717 27.1274Z" fill="black"/>
<path opacity="0.1" d="M66.7361 66.8913C67.0476 66.9918 67.3851 67.1384 67.4911 67.44L64.9861 66.8243L63.6882 66.5039C63.4589 66.4473 62.6368 66.3824 62.4854 66.2086C62.2691 65.953 63.037 66.129 63.1755 66.1478C63.5951 66.2086 64.0148 66.2714 64.4323 66.3447C65.2197 66.4808 65.9768 66.7049 66.7361 66.8913Z" fill="black"/>
<path opacity="0.1" d="M67.7078 69.0384C67.4915 68.898 66.8706 68.9148 66.6045 68.854C66.2152 68.764 65.8323 68.6446 65.4494 68.5294C64.6728 68.2843 63.9027 68.0058 63.1045 67.8256C62.9574 67.7942 62.4555 67.7858 62.4793 67.6057C62.5031 67.4256 62.9812 67.3628 63.1002 67.3544C63.8075 67.3041 64.6901 67.6246 65.3477 67.8529C66.1859 68.1435 66.9797 68.5423 67.7078 69.0384Z" fill="black"/>
<path opacity="0.1" d="M66.1193 64.9772C65.3254 64.7677 64.6051 64.2901 63.7874 64.198C63.5743 64.2058 63.3647 64.1438 63.1925 64.022C63.0964 63.9305 63.0296 63.8142 63 63.6868C63.5473 63.6596 64.1833 63.8837 64.6808 64.0953C64.9546 64.2091 65.218 64.345 65.4682 64.5017C65.6499 64.6085 65.9225 64.9165 66.1193 64.9772Z" fill="black"/>
<path d="M81.2536 46.2231C81.1194 47.0939 81.3136 47.9823 81.8006 48.7258C82.2876 49.4692 83.0349 50.018 83.9057 50.2716C83.7997 50.768 83.2697 51.0423 82.8955 51.3963C82.3676 51.8926 82.0951 52.6362 81.4721 53.0131C80.7777 53.432 79.8843 53.2687 79.0925 53.0927C79.0206 53.0849 78.9542 53.0513 78.9065 52.9985C78.8902 52.9734 78.8785 52.9458 78.8719 52.9168C78.6102 51.989 78.4393 50.9983 78.7075 50.0684C78.9238 49.2768 79.443 48.6024 79.8583 47.9028C80.2737 47.2033 80.3126 46.4535 81.2536 46.2231Z" fill="#3F3D56"/>
<path d="M61.912 34.2133C61.0747 34.2723 60.2616 34.512 59.5325 34.915C59.0479 35.183 58.5504 35.5433 57.9966 35.4784C57.67 35.4428 57.3477 35.2689 57.0297 35.3527C56.8505 35.4227 56.6835 35.5187 56.5343 35.6376C56.4586 35.6959 56.3686 35.7343 56.2731 35.7489C56.1776 35.7636 56.0798 35.7541 55.9892 35.7213L55.7728 38.6201C55.6906 39.7218 55.6106 40.8465 55.8832 41.921C56.0238 42.4698 56.3331 42.9682 56.3677 43.5254C56.4023 44.0825 56.3504 44.6543 56.3915 45.2177C56.4305 45.7393 56.5494 46.2524 56.5797 46.7739C56.6403 47.7583 56.3893 48.7344 56.1471 49.6915C55.7815 51.1032 55.5608 52.5463 54.8492 53.824C54.6501 54.1779 54.4165 54.5382 54.4165 54.9403C54.4165 54.9906 54.4165 55.0388 54.4295 55.0869C54.2132 55.2021 54.012 55.3111 53.8281 55.4242C53.4171 55.6818 52.978 55.9687 52.8093 56.4149C52.673 56.7772 52.7357 57.1919 52.5713 57.5417C52.4069 57.8915 52.0305 58.1407 51.9483 58.5177C51.8899 58.7921 52.0024 59.0811 51.9483 59.3555C51.8993 59.4975 51.8596 59.6423 51.8293 59.7891C51.8077 60.1032 52.0824 60.3567 52.355 60.5284C52.7524 60.7821 53.1912 60.969 53.6529 61.0814L54.9443 56.1174C56.1218 54.0096 57.1013 51.8036 57.8711 49.5261C58.0914 48.7816 58.3743 48.0559 58.717 47.3562C58.9618 46.9604 59.1786 46.5489 59.3659 46.1246C59.5628 45.5968 59.5822 45.025 59.6774 44.4679C59.7904 43.8176 59.9605 43.1779 60.1858 42.5556C60.4194 41.8833 60.6898 41.2131 60.7374 40.5072C60.8088 39.4977 60.4302 38.4316 60.8326 37.4975C61.0033 37.1478 61.2256 36.824 61.4923 36.5361C62.0504 35.8742 62.5588 35.1809 63.1169 34.5191C62.827 34.2196 62.3446 34.1882 61.912 34.2133Z" fill="#3F3D56"/>
<g opacity="0.1">
<path opacity="0.1" d="M68.0077 22.6284L67.7373 22.6472L67.707 22.6681C67.8083 22.6641 67.909 22.6508 68.0077 22.6284Z" fill="black"/>
<path opacity="0.1" d="M72.9577 26.9765C72.9125 27.3929 72.8197 27.8032 72.6808 28.1997C72.5914 28.4404 72.5191 28.6868 72.4645 28.937C72.4212 29.18 72.4169 29.4271 72.3779 29.6701C72.33 29.9852 72.2174 30.2877 72.0469 30.56C71.8764 30.8323 71.6514 31.0689 71.385 31.2557C71.3092 31.3156 71.2146 31.3488 71.1168 31.3499C70.9481 31.3311 70.8442 31.1405 70.7815 30.9687C70.4376 30.0073 70.5197 28.8323 69.8859 28.0657C69.5976 27.7564 69.2492 27.5052 68.8606 27.3263C68.7021 27.2273 68.5236 27.1623 68.3371 27.1357C68.0627 27.15 67.7991 27.2434 67.58 27.4038C67.1234 27.7003 66.6168 27.9173 66.083 28.0447C65.8167 28.1058 65.5396 28.1086 65.272 28.0528C65.0044 27.997 64.7531 27.884 64.5363 27.7222C64.2378 27.4834 64.0193 27.1252 63.6884 26.9388C63.3574 26.7524 63.0113 26.7629 62.6846 26.6351C62.4806 26.5507 62.2988 26.4229 62.1528 26.2612C62.0067 26.0995 61.9002 25.908 61.841 25.7009C61.8334 25.6748 61.8276 25.6482 61.8237 25.6213C61.7696 25.8551 61.7756 26.0982 61.841 26.3293C61.9002 26.5364 62.0067 26.7278 62.1528 26.8896C62.2988 27.0513 62.4806 27.1791 62.6846 27.2635C63.0113 27.3912 63.379 27.3933 63.6884 27.5672C63.9977 27.741 64.2378 28.1118 64.5363 28.3505C64.7531 28.5124 65.0044 28.6253 65.272 28.6811C65.5396 28.7369 65.8167 28.7342 66.083 28.6731C66.6168 28.5456 67.1234 28.3287 67.58 28.0322C67.7991 27.8717 68.0627 27.7784 68.3371 27.7641C68.5236 27.7907 68.7021 27.8557 68.8606 27.9547C69.2443 28.1371 69.5875 28.3904 69.8708 28.7003C70.5046 29.4669 70.4224 30.642 70.7664 31.6034C70.8291 31.7772 70.9329 31.9657 71.1016 31.9846C71.2055 31.9851 71.3061 31.9494 71.385 31.8841C71.6525 31.6967 71.8784 31.4593 72.0493 31.1858C72.2202 30.9124 72.3327 30.6085 72.3801 30.2922C72.419 30.0492 72.4234 29.8021 72.4666 29.5591C72.5213 29.3088 72.5935 29.0625 72.6829 28.8218C72.8937 28.2577 72.9914 27.6598 72.9707 27.0603C72.9663 27.0352 72.962 27.0058 72.9577 26.9765Z" fill="black"/>
</g>
<path d="M45.9233 0.0229626C45.9233 0.0229626 27.7112 -1.04105 29.8528 11.3166C29.8528 11.3166 29.4202 13.5011 31.4709 14.4918C31.4709 14.4918 31.5033 13.5765 33.3399 13.8886C33.9938 13.9935 34.658 14.0245 35.3192 13.9808C36.2125 13.921 37.0615 13.5814 37.7377 13.0131C37.7377 13.0131 42.858 10.9647 44.8481 2.86312C44.8481 2.86312 46.3213 1.09535 46.2629 0.640844L43.189 1.91221C43.189 1.91221 44.2403 4.05908 43.4053 5.8436C43.4053 5.8436 43.3058 1.98971 42.7152 2.07349C42.5963 2.09234 41.1188 2.81704 41.1188 2.81704C41.1188 2.81704 42.9251 6.55573 41.5622 9.27441C41.5622 9.27441 42.0792 4.66649 40.5542 3.08723L38.391 4.31042C38.391 4.31042 40.5023 8.17269 39.0702 11.3249C39.0702 11.3249 39.438 6.4908 37.9345 4.60784L35.9747 6.08866C35.9747 6.08866 37.9583 9.89647 36.7491 12.5104C36.7491 12.5104 36.5912 6.88248 35.5507 6.45729C35.5507 6.45729 33.8353 7.92345 33.5735 8.52248C33.5735 8.52248 34.932 11.2872 34.0884 12.745C34.0884 12.745 33.5714 8.99584 33.1474 8.97489C33.1474 8.97489 31.4384 11.459 31.2611 13.1639C31.2611 13.1639 31.3346 10.6316 32.7342 8.74031C32.7342 8.74031 31.0815 9.01469 30.1167 10.0515C30.1167 10.0515 30.3828 8.29627 33.156 8.14337C33.156 8.14337 34.5686 6.25831 34.945 6.14312C34.945 6.14312 32.1891 5.9211 30.5169 6.63742C30.5169 6.63742 31.9879 4.98066 35.4512 5.73468L37.3873 4.2036C37.3873 4.2036 33.7574 3.72396 32.2172 4.25387C32.2172 4.25387 33.9889 2.78771 37.9086 3.85591L40.0155 2.63691C40.0155 2.63691 36.92 1.9918 35.077 2.21801C35.077 2.21801 37.0238 1.20217 40.6342 2.30388L42.1485 1.6483C42.1485 1.6483 39.8814 1.21683 39.2173 1.14771C38.5532 1.0786 38.5186 0.902657 38.5186 0.902657C39.9549 0.670764 41.4294 0.829562 42.778 1.36135C42.778 1.36135 45.9795 0.217752 45.9233 0.0229626Z" fill="#00A344"/>
<path d="M23.4609 3.16705C23.4609 3.16705 15.2408 2.68532 16.2034 8.26915C16.2034 8.26915 16.0109 9.25774 16.9324 9.70595C16.9324 9.70595 16.9475 9.28706 17.7782 9.43158C18.0732 9.47966 18.3731 9.49372 18.6716 9.47347C19.0753 9.4469 19.459 9.29317 19.764 9.03573C19.764 9.03573 22.0786 8.11207 22.9785 4.45095C22.9785 4.45095 23.6426 3.65087 23.6167 3.44561L22.2279 4.01949C22.2279 4.01949 22.7038 4.99132 22.3296 5.79769C22.3296 5.79769 22.2842 4.0551 22.0181 4.09699C21.964 4.09699 21.2956 4.4321 21.2956 4.4321C21.2956 4.4321 22.1133 6.12233 21.4967 7.35178C21.4967 7.35178 21.7304 5.26989 21.0403 4.55568L20.0625 5.10861C20.0625 5.10861 21.0187 6.8533 20.3697 8.27753C20.3697 8.27753 20.5363 6.09301 19.857 5.24266L18.9723 5.91917C18.9723 5.91917 19.8679 7.64082 19.3227 8.82C19.3227 8.82 19.2513 6.27732 18.7798 6.08673C18.7798 6.08673 18.0053 6.74857 17.8864 7.02085C17.8864 7.02085 18.5007 8.27753 18.12 8.92681C18.12 8.92681 17.8864 7.2324 17.6874 7.22611C17.6874 7.22611 16.9172 8.34874 16.835 9.11113C16.8736 8.39962 17.1033 7.71018 17.5013 7.11092C17.0557 7.19265 16.6444 7.39867 16.318 7.70365C16.318 7.70365 16.4392 6.91194 17.6917 6.84073C17.6917 6.84073 18.3406 5.99038 18.5007 5.93802C18.5007 5.93802 17.2547 5.83749 16.4998 6.16213C16.4998 6.16213 17.1639 5.41231 18.73 5.74323L19.5953 5.05206C19.5953 5.05206 17.9556 4.84262 17.259 5.0751C17.259 5.0751 18.0594 4.41325 19.8311 4.89498L20.7829 4.34413C20.7829 4.34413 19.3855 4.05091 18.5505 4.15773C18.5505 4.15773 19.4309 3.69695 21.0619 4.19543L21.7434 3.90011C21.7434 3.90011 20.718 3.70323 20.4173 3.67391C20.1166 3.64458 20.1015 3.5629 20.1015 3.5629C20.7509 3.45831 21.4175 3.53083 22.0267 3.77235C22.0267 3.77235 23.4869 3.25501 23.4609 3.16705Z" fill="#00A344"/>
<path d="M43.5224 85.9929C48.3263 85.9929 52.2206 85.3553 52.2206 84.5687C52.2206 83.7821 48.3263 83.1444 43.5224 83.1444C38.7185 83.1444 34.8242 83.7821 34.8242 84.5687C34.8242 85.3553 38.7185 85.9929 43.5224 85.9929Z" fill="#00A344"/>
<path d="M47.1201 82.2402C47.5172 81.9269 47.8063 81.5038 47.9486 81.0274C48.0568 80.5477 47.8448 79.9801 47.3688 79.7936C46.8367 79.5968 46.2678 79.9549 45.8373 80.3152C45.4068 80.6755 44.9115 81.0881 44.349 81.0106C44.6389 80.7557 44.8557 80.4325 44.9785 80.0725C45.1013 79.7124 45.1259 79.3278 45.0499 78.9558C45.0253 78.8017 44.958 78.6569 44.8552 78.5369C44.5588 78.2311 44.0245 78.3609 43.6698 78.6018C42.5449 79.3684 42.2312 80.8493 42.2248 82.1794C42.1123 81.6997 42.2074 81.1991 42.2053 80.7132C42.2031 80.2272 42.0625 79.6659 41.632 79.4082C41.3666 79.2699 41.0681 79.202 40.7668 79.2113C40.2627 79.1925 39.6981 79.2428 39.3542 79.6009C38.9215 80.045 39.0362 80.7907 39.4083 81.2766C39.7803 81.7626 40.3493 82.0747 40.8727 82.4119C41.2915 82.6537 41.6487 82.9838 41.9176 83.3776C41.95 83.4326 41.9761 83.4909 41.9955 83.5514H45.1667C45.876 83.2017 46.5331 82.7606 47.1201 82.2402Z" fill="#00A344"/>
<path d="M43.6093 54.9384L43.5303 55.9644C43.5187 56.1037 43.2437 59.421 41.2149 63.298C39.474 66.6232 36.0862 70.9542 29.69 73.3883C29.191 73.5793 28.673 73.7576 28.136 73.9232L27.5371 72.1027C29.0406 71.6446 30.4889 71.0312 31.8569 70.2732C35.1171 68.4505 37.6518 65.849 39.4195 62.5013C40.3573 60.7189 41.0257 58.8153 41.4041 56.8488H34.1271V54.9384H43.6093Z" fill="#FFCD00"/>
<path opacity="0.1" d="M28.9057 73.3894C35.3007 70.9553 38.6897 66.6254 40.4294 63.3002C42.4582 59.4232 42.7344 56.1081 42.7449 55.9665L42.8238 54.9406H43.6362L43.5573 55.9665C43.5468 56.1059 43.2706 59.4232 41.2419 63.3002C39.5009 66.6254 36.1131 70.9553 29.7181 73.3894C29.2191 73.5804 28.7007 73.7591 28.1629 73.9254L28.084 73.686C28.3641 73.5894 28.638 73.4905 28.9057 73.3894Z" fill="white"/>
<path d="M16.1034 72.1027L15.5045 73.9232C14.9668 73.7569 14.4484 73.5782 13.9493 73.3872C7.55433 70.9531 4.16534 66.6232 2.42559 63.298C0.396843 59.421 0.12062 56.1059 0.110174 55.9644L0.03125 54.9384H9.50879V56.8488H2.23061C2.61105 58.8155 3.28138 60.7191 4.22105 62.5013C5.98866 65.849 8.52227 68.4505 11.7824 70.2721C13.1506 71.0309 14.5993 71.6446 16.1034 72.1027Z" fill="#FFCD00"/>
<path opacity="0.1" d="M14.7305 73.3894C8.33553 70.9553 4.94654 66.6254 3.20678 63.3002C1.17802 59.4232 0.901796 56.1081 0.89135 55.9665L0.81243 54.9406H0L0.0789209 55.9665C0.0893664 56.1059 0.365594 59.4232 2.39435 63.3002C4.13527 66.6254 7.5231 70.9553 13.9181 73.3894C14.4171 73.5804 14.9356 73.7591 15.4733 73.9254L15.5522 73.686C15.2729 73.5894 14.999 73.4905 14.7305 73.3894Z" fill="white"/>
<path d="M32.7664 89.6999V100.001H10.8691V89.6999L11.5655 88.8009C18.6615 86.3624 20.0995 80.0031 20.3862 77.487C20.4288 77.1393 20.4532 76.7898 20.4593 76.4397H23.167C23.173 76.7898 23.1975 77.1393 23.2401 77.487C23.5314 80.0031 24.9694 86.3646 32.0608 88.8009L32.7664 89.6999Z" fill="#FFCD00"/>
<path opacity="0.1" d="M32.7664 89.6998H10.8691V90.9922H32.7664V89.6998Z" fill="black"/>
<path opacity="0.1" d="M12.7261 88.8009C19.8221 86.3624 21.2601 80.0031 21.5468 77.487C21.5894 77.1393 21.6138 76.7898 21.6199 76.4397H20.4593C20.4532 76.7898 20.4288 77.1393 20.3862 77.487C20.0948 80.0031 18.6568 86.3646 11.5655 88.8009L10.8691 89.6999V100.001H12.0298V89.6999L12.7261 88.8009Z" fill="white"/>
<path opacity="0.1" d="M7.54297 54.9384H9.5067V56.8485H7.71706C7.64665 56.2193 7.58862 55.5826 7.54297 54.9384Z" fill="black"/>
<path opacity="0.1" d="M16.1022 72.1023L15.5033 73.9228C14.9656 73.7565 14.4472 73.5778 13.9481 73.3867C13.1271 72.416 12.4017 71.3731 11.7812 70.2716C13.1494 71.0304 14.5981 71.6442 16.1022 72.1023Z" fill="black"/>
<path opacity="0.1" d="M27.5352 72.1024C29.0387 71.6443 30.4869 71.0309 31.855 70.2729C31.2342 71.3745 30.5088 72.4178 29.6881 73.3891C29.189 73.5801 28.671 73.7584 28.134 73.924L27.5352 72.1024Z" fill="black"/>
<path opacity="0.1" d="M23.2465 77.4871C22.3039 77.6639 21.3351 77.6639 20.3926 77.4871C20.4352 77.1394 20.4596 76.7898 20.4657 76.4397H23.1734C23.1794 76.7898 23.2038 77.1394 23.2465 77.4871Z" fill="black"/>
<path d="M7.77539 51.7736C7.8253 65.9396 14.0926 77.3952 21.8188 77.3952C29.545 77.3952 35.8111 65.9396 35.8622 51.7736H7.77539Z" fill="#FFCD00"/>
<path opacity="0.1" d="M10.2707 51.7736H7.77539C7.8253 65.9396 14.0926 77.3952 21.8188 77.3952C22.2369 77.3944 22.6542 77.3602 23.0664 77.2929C15.924 76.1377 10.3183 65.1687 10.2707 51.7736Z" fill="white"/>
<path d="M29.2672 93.6438H14.373V97.3518H29.2672V93.6438Z" fill="#3F3D56"/>
<path opacity="0.1" d="M15.0694 94.1494H29.2672V93.6438H14.373V97.3518H15.0694V94.1494Z" fill="white"/>
<defs>
<linearGradient id="paint0_linear_138_299" x1="72.1435" y1="97.3725" x2="72.1435" y2="13.1111" gradientUnits="userSpaceOnUse">
<stop stop-color="#808080" stop-opacity="0.25"/>
<stop offset="0.54" stop-color="#808080" stop-opacity="0.12"/>
<stop offset="1" stop-color="#808080" stop-opacity="0.1"/>
</linearGradient>
</defs>
</svg>
