<svg width="100" height="100" viewBox="0 0 100 100" fill="none" xmlns="http://www.w3.org/2000/svg">
<path d="M13.6309 72.1926L11.563 69.1845C12.2311 67.622 12.9966 66.0946 13.8559 64.6097L15.2136 65.6382L14.1548 64.0981C15.2375 62.2715 16.0829 61.1235 16.0829 61.1235C16.0829 61.1235 20.2277 67.2735 21.514 73.7287L18.69 77.4895L21.7713 75.3398C21.8625 76.0907 21.9012 76.846 21.8871 77.6013C21.7169 85.2157 18.8164 91.3383 15.4088 91.2766C12.0011 91.2148 9.37665 84.9921 9.5469 77.3777C9.59968 75.0172 10.2481 72.5583 11.1175 70.2886L13.6309 72.1926Z" fill="#00A344"/>
<path d="M4.27385 75.5507L0.776363 73.9379C0.451137 72.2894 0.229457 70.6257 0.112374 68.9547L1.86518 69.2034L0.0744629 68.3777C-0.047527 66.3102 0.0171094 64.9341 0.0171094 64.9341C0.0171094 64.9341 7.09642 68.27 11.9041 73.1974L11.646 77.7309L13.0494 74.4569C13.5587 75.0572 14.0255 75.6858 14.4471 76.3389C18.6735 82.9363 19.7061 89.5272 16.7536 91.0601C13.801 92.5929 7.98131 88.4872 3.75494 81.8897C2.44473 79.8444 1.58794 77.4378 1.02896 75.0903L4.27385 75.5507Z" fill="#FFCD00"/>
<path d="M21.8348 99.9005C17.8047 100.133 13.4136 99.887 8.74219 99.9005V90.2727C12.8585 90.8495 17.2482 90.7903 21.8348 90.2727V99.9005Z" fill="#3F3D56"/>
<path d="M99.999 55.8622L57.2301 62.0616L57.0488 24.6317L99.8178 0L99.999 55.8622Z" fill="#E6E6E6"/>
<path d="M96.0126 50.3155L59.043 57.4936V26.1706L96.0126 8.10718V50.3155Z" fill="white"/>
<path d="M92.3894 21.6027L61.2188 34.1684V29.7595L92.3894 15.8975V21.6027Z" fill="#FFCD00"/>
<path d="M92.3894 33.3489L61.2188 43.2459V38.8957L92.3894 27.7195V33.3489Z" fill="#00A344"/>
<path d="M73.2613 27.8985C73.2673 27.8763 73.2813 27.8564 73.3011 27.842C73.3209 27.8275 73.3454 27.8193 73.3708 27.8185C73.3963 27.8178 73.4213 27.8245 73.4421 27.8378C73.4629 27.851 73.4783 27.87 73.486 27.8919L73.9907 29.3237L74.5953 31.0391C74.6041 31.0642 74.6022 31.0913 74.5899 31.1152C74.5776 31.139 74.5559 31.1579 74.5289 31.168L73.3605 31.6063L72.3336 31.9915C72.3137 31.999 72.2918 32.0013 72.2704 31.9983C72.2491 31.9953 72.2291 31.9869 72.2127 31.9743C72.1962 31.9616 72.1841 31.9451 72.1775 31.9265C72.1709 31.908 72.1701 31.8882 72.1753 31.8693L72.7369 29.8156L73.2613 27.8985Z" fill="#E6E6E6"/>
<path d="M71.3856 38.5748C71.3957 38.5381 71.4188 38.5053 71.4514 38.4815C71.4841 38.4577 71.5245 38.4441 71.5665 38.4428C71.6085 38.4416 71.6498 38.4527 71.6841 38.4746C71.7184 38.4964 71.7439 38.5278 71.7566 38.5638L72.1796 39.7641L72.7632 41.4199C72.7778 41.4613 72.7746 41.506 72.7544 41.5454C72.7341 41.5848 72.6981 41.6159 72.6536 41.6326L71.5494 42.0468L70.6615 42.3799C70.6285 42.3922 70.5924 42.3961 70.5572 42.3911C70.5219 42.3861 70.4889 42.3723 70.4618 42.3514C70.4348 42.3305 70.4146 42.3033 70.4037 42.2727C70.3928 42.2421 70.3916 42.2094 70.4001 42.1782L70.9258 40.2561L71.3856 38.5748Z" fill="#E6E6E6"/>
<path d="M92.3894 45.0952L61.2188 52.3233V47.7053L92.3894 39.1195V45.0952Z" fill="#F2F2F2"/>
<path d="M91.6633 24.7765C91.6633 25.759 91.1744 26.7359 90.576 26.9567C89.9829 27.1756 89.5059 26.5677 89.5059 25.6007C89.5059 24.6337 89.9829 23.6613 90.576 23.427C91.1744 23.1906 91.6633 23.7939 91.6633 24.7765Z" fill="#FFCD00"/>
<path d="M90.9398 25.0538C90.9398 25.3812 90.7772 25.708 90.5773 25.7835C90.378 25.8588 90.2168 25.6556 90.2168 25.3299C90.2168 25.0042 90.378 24.6779 90.5773 24.6009C90.7772 24.5237 90.9398 24.7263 90.9398 25.0538Z" fill="white"/>
<path d="M91.6633 36.1961C91.6633 37.1787 91.1744 38.1556 90.576 38.3764C89.9829 38.5952 89.5059 37.9873 89.5059 37.0204C89.5059 36.0534 89.9829 35.081 90.576 34.8467C91.1744 34.6103 91.6633 35.2136 91.6633 36.1961Z" fill="#00A344"/>
<path d="M90.9398 36.4733C90.9398 36.8008 90.7772 37.1277 90.5773 37.2032C90.378 37.2785 90.2168 37.0752 90.2168 36.7495C90.2168 36.4237 90.378 36.0974 90.5773 36.0203C90.7772 35.9431 90.9398 36.1458 90.9398 36.4733Z" fill="white"/>
<path d="M91.6633 47.6162C91.6633 48.5987 91.1744 49.5756 90.576 49.7964C89.9829 50.0153 89.5059 49.4074 89.5059 48.4404C89.5059 47.4734 89.9829 46.501 90.576 46.2667C91.1744 46.0303 91.6633 46.6337 91.6633 47.6162Z" fill="#F2F2F2"/>
<path d="M90.9398 47.8929C90.9398 48.2205 90.7772 48.5474 90.5773 48.6229C90.378 48.6982 90.2168 48.495 90.2168 48.1692C90.2168 47.8433 90.378 47.5169 90.5773 47.4399C90.7772 47.3626 90.9398 47.5654 90.9398 47.8929Z" fill="white"/>
<path d="M74.284 48.0374C74.2941 48.0007 74.3172 47.9679 74.3498 47.9441C74.3825 47.9203 74.4229 47.9067 74.4649 47.9055C74.5069 47.9042 74.5482 47.9154 74.5825 47.9372C74.6168 47.9591 74.6423 47.9904 74.655 48.0264L75.078 49.2267L75.6616 50.8824C75.6762 50.9238 75.673 50.9686 75.6527 51.0079C75.6324 51.0473 75.5965 51.0784 75.552 51.0951L74.4478 51.5093L73.5599 51.8424C73.5269 51.8547 73.4909 51.8586 73.4556 51.8536C73.4204 51.8486 73.3874 51.8348 73.3603 51.8139C73.3332 51.793 73.3131 51.7658 73.3022 51.7352C73.2913 51.7046 73.29 51.6719 73.2986 51.6407L73.8242 49.7186L74.284 48.0374Z" fill="#E6E6E6"/>
<path d="M66.9282 46.03L68.6144 44.6299C68.6144 44.6299 72.4312 42.2633 71.098 40.9622C69.7648 39.6612 67.0777 42.6951 67.0777 42.6951L65.4102 43.6784L66.9282 46.03Z" fill="#FFB9B9"/>
<path d="M44.6334 46.6815L43.6512 47.8985C43.6512 47.8985 42.2785 52.6505 49.2248 52.9028C49.2248 52.9028 58.0962 56.7743 60.2922 54.3488C62.4883 51.9232 68.5478 46.0889 68.5478 46.0889L64.9833 42.8278L57.7193 49.6622L50.6722 46.4834C50.6722 46.4834 47.0423 44.6813 44.6334 46.6815Z" fill="#2F2E41"/>
<path d="M40.0117 69.2318L30.8145 99.7359L31.9731 99.9446L41.6337 69.2318H40.0117Z" fill="#603C28"/>
<path d="M51.1613 69.2318L60.3582 99.7359L59.1996 99.9446L49.5391 69.2318H51.1613Z" fill="#E6E6E6"/>
<path d="M44.877 68.6061L46.4193 99.7867L47.7587 99.8403L46.0358 68.1887L44.877 68.6061Z" fill="#603C28"/>
<path d="M49.1631 68.1125C49.1631 68.9034 46.7581 69.7525 43.6015 70.0253C40.2135 70.3181 37.2793 69.8428 37.2793 68.9437C37.2793 68.0446 40.2135 67.1589 43.6015 66.9777C46.7581 66.809 49.1631 67.3215 49.1631 68.1125Z" fill="#603C28"/>
<path d="M52.5239 62.7649L54.8412 64.2252C54.8412 64.2252 64.8057 70.6921 63.8788 73.1954C62.9518 75.6987 57.8537 85.712 57.8537 85.712L51.3652 83.8345L58.7807 73.1954L54.8412 69.8576L52.7556 65.2682L52.5239 62.7649Z" fill="#2F2E41"/>
<path d="M43.4866 59.01C43.4866 59.01 38.8519 65.4769 41.6327 67.3544C44.4135 69.2319 52.2924 76.5332 52.2924 76.5332L53.9146 79.871L59.7079 96.7684L66.8916 93.4306L60.4031 80.2882C60.4031 80.2882 59.7079 75.4902 57.3906 72.7782C55.0732 70.0663 54.1463 66.1027 54.1463 66.1027L54.8415 64.2252L50.6922 58.2487L43.4866 59.01Z" fill="#2F2E41"/>
<path d="M56.0901 84.5167L51.925 83.3755C51.925 83.3755 47.4273 83.2087 47.659 84.669C47.8908 86.1292 51.5985 95.7252 52.7572 95.0994C53.9159 94.4736 52.9889 91.5531 52.9889 91.5531L56.0901 84.5167Z" fill="#2F2E41"/>
<path d="M46.8465 38.6705L44.5293 40.9652L48.237 46.389L49.8592 42.2169L46.8465 38.6705Z" fill="#FFB9B9"/>
<path d="M49.0485 46.7017L44.9326 40.5659L43.4869 40.8606V42.9467L43.0234 60.47L50.6706 59.4269C50.6706 59.4269 51.1341 48.162 49.0485 46.7017Z" fill="#FFCD00"/>
<path d="M46.9631 46.4934L43.4871 40.861L40.4746 42.1126L35.1447 61.722L31.9004 67.3545C31.9004 67.3545 42.5602 72.1525 45.1093 67.3545C47.6583 62.5564 47.8901 51.9173 47.8901 51.9173L46.9631 46.4934Z" fill="#2F2E41"/>
<path d="M41.8646 42.9468L40.4742 42.1123C40.4742 42.1123 35.1444 41.0693 35.1444 47.3276C35.1444 47.3276 31.2049 55.4634 33.9857 57.3409C36.7665 59.2184 43.4868 64.4337 43.4868 64.4337L46.9628 61.0959L39.0838 54.8376L42.3281 48.3707C42.3281 48.3707 44.182 45.0329 41.8646 42.9468Z" fill="#2F2E41"/>
<path d="M43.4883 62.9733L45.1104 64.4335C45.1104 64.4335 47.8912 67.7712 49.2816 66.5196C50.6719 65.268 47.196 62.9733 47.196 62.9733L46.0373 61.5131L43.4883 62.9733Z" fill="#FFB9B9"/>
<path d="M48.7801 44.809L52.7565 53.5863C52.7565 53.5863 54.3786 57.9671 54.3786 59.636V64.2255L49.9757 59.0102C49.9757 59.0102 47.5845 45.4191 48.7801 44.809Z" fill="#2F2E41"/>
<path d="M61.44 95.1045C61.44 95.1045 60.292 99.1735 61.7987 99.518C63.3054 99.8625 75.9471 100.154 75.9551 98.2306C75.9631 96.3073 67.7505 94.7184 67.7505 94.7184L64.7164 92.9659L61.44 95.1045Z" fill="#2F2E41"/>
<path d="M49.7435 42.5295C52.0472 42.5295 53.9147 40.8483 53.9147 38.7746C53.9147 36.7008 52.0472 35.0197 49.7435 35.0197C47.4398 35.0197 45.5723 36.7008 45.5723 38.7746C45.5723 40.8483 47.4398 42.5295 49.7435 42.5295Z" fill="#FFB9B9"/>
<path d="M54.1915 38.1006C54.1915 38.1006 55.0063 34.9224 54.1915 34.1889V34.6779C54.1915 34.6779 53.6483 32.9665 52.562 33.4555C52.562 33.4555 51.2041 32.4775 50.9325 32.9665C49.3345 31.6659 42.2488 32.8852 45.6884 39.7136C45.6884 39.7136 46.3155 37.6117 46.3155 38.3451C46.3155 38.3451 47.945 36.8782 48.2166 36.3893C48.4882 35.9003 53.1052 39.0786 54.1915 38.1006Z" fill="#2F2E41"/>
</svg>
