<svg width="206" height="46" viewBox="0 0 206 46" fill="none" xmlns="http://www.w3.org/2000/svg">
<path d="M0.888665 42.2616L6.00789 39.592L5.76025 45.3601L0.888665 42.2616ZM153.023 17.0055L153.241 17.4552L153.023 17.0055ZM155.45 2.18004L155.648 1.72105L155.45 2.18004ZM155.749 15.6815L155.53 15.2317L155.749 15.6815ZM194.857 40.9316L194.917 40.4352L194.857 40.9316ZM154.585 1.80618L154.387 2.26516L154.585 1.80618ZM205.829 42.7573L204.45 42.5911L204.57 41.5983L205.949 41.7644L205.829 42.7573ZM201.692 42.2588L198.934 41.9265L199.054 40.9336L201.812 41.266L201.692 42.2588ZM196.176 41.5941L194.797 41.428L194.917 40.4352L196.296 40.6013L196.176 41.5941ZM194.797 41.428C194.313 41.3697 193.831 41.3066 193.349 41.2387L193.489 40.2485C193.964 40.3154 194.44 40.3777 194.917 40.4352L194.797 41.428ZM190.466 40.7726C189.507 40.5976 188.554 40.4035 187.605 40.1907L187.825 39.215C188.759 39.4249 189.7 39.6163 190.646 39.7889L190.466 40.7726ZM184.77 39.4934C183.828 39.2416 182.893 38.9712 181.965 38.6822L182.262 37.7274C183.177 38.0123 184.1 38.2791 185.028 38.5273L184.77 39.4934ZM179.195 37.7583C178.277 37.4315 177.367 37.0864 176.464 36.7233L176.838 35.7956C177.728 36.1536 178.625 36.494 179.53 36.8163L179.195 37.7583ZM173.778 35.5788C172.89 35.1791 172.011 34.7616 171.14 34.3267L171.587 33.4322C172.446 33.8611 173.313 34.2728 174.189 34.6669L173.778 35.5788ZM168.555 32.9692C167.703 32.4993 166.86 32.0123 166.027 31.5084L166.544 30.6528C167.366 31.1497 168.197 31.63 169.038 32.0934L168.555 32.9692ZM163.56 29.9467C162.748 29.4098 161.947 28.8563 161.157 28.2866L161.742 27.4756C162.521 28.0374 163.311 28.5832 164.111 29.1127L163.56 29.9467ZM158.824 26.531C158.059 25.9306 157.305 25.3143 156.564 24.6825L157.213 23.9213C157.944 24.5444 158.687 25.1521 159.442 25.7443L158.824 26.531ZM154.38 22.7441C153.666 22.0841 152.965 21.4091 152.277 20.7192L152.985 20.0129C153.663 20.6932 154.355 21.359 155.059 22.0098L154.38 22.7441ZM150.256 18.6106C149.598 17.8955 148.954 17.1661 148.323 16.4226L149.086 15.7758C149.708 16.509 150.343 17.2283 150.992 17.9335L150.256 18.6106ZM146.48 14.158C146.18 13.7747 145.885 13.388 145.593 12.9979L146.393 12.3984C146.681 12.7831 146.973 13.1645 147.268 13.5424L146.48 14.158ZM145.593 12.9979C145.244 12.5323 144.956 12.0528 144.727 11.5649L145.632 11.1395C145.832 11.5644 146.084 11.9858 146.393 12.3984L145.593 12.9979ZM144.018 8.29781C144.038 7.15598 144.323 6.05123 144.815 5.05527L145.712 5.49822C145.281 6.36917 145.035 7.32898 145.018 8.31452L144.018 8.29781ZM146.878 2.44047C147.732 1.73004 148.74 1.19514 149.846 0.910734L150.095 1.87923C149.14 2.1247 148.264 2.58799 147.517 3.20924L146.878 2.44047ZM153.188 0.839247C153.716 0.948697 154.249 1.11645 154.783 1.34719L154.387 2.26516C153.913 2.06067 153.445 1.91375 152.985 1.81842L153.188 0.839247ZM154.783 1.34719L154.999 1.44066L154.603 2.35863L154.387 2.26516L154.783 1.34719ZM155.432 1.62759L155.648 1.72105L155.252 2.63902L155.035 2.54556L155.432 1.62759ZM155.648 1.72105C156.123 1.92629 156.564 2.16757 156.971 2.43985L156.414 3.27057C156.059 3.03255 155.671 2.82037 155.252 2.63902L155.648 1.72105ZM159.096 4.56164C159.665 5.41072 160.053 6.35346 160.258 7.32893L159.279 7.53504C159.099 6.68013 158.761 5.85713 158.266 5.11822L159.096 4.56164ZM160.324 10.3249C160.162 11.3085 159.817 12.2675 159.286 13.1409L158.432 12.6216C158.894 11.8615 159.196 11.0243 159.338 10.1623L160.324 10.3249ZM157.256 15.3547C156.863 15.6447 156.433 15.9052 155.967 16.1313L155.53 15.2317C155.942 15.032 156.319 14.8029 156.664 14.5494L157.256 15.3547ZM155.967 16.1313L155.286 16.4622L154.849 15.5627L155.53 15.2317L155.967 16.1313ZM153.923 17.1242L153.241 17.4552L152.804 16.5557L153.486 16.2247L153.923 17.1242ZM153.241 17.4552C152.794 17.6725 152.346 17.8884 151.898 18.103L151.466 17.2011C151.913 16.9872 152.359 16.7721 152.804 16.5557L153.241 17.4552ZM149.201 19.3754C148.3 19.7947 147.396 20.2087 146.49 20.6175L146.079 19.7061C146.981 19.2988 147.881 18.8863 148.78 18.4686L149.201 19.3754ZM143.765 21.8291C142.855 22.2279 141.942 22.6215 141.027 23.0098L140.636 22.0894C141.548 21.7025 142.457 21.3104 143.364 20.9131L143.765 21.8291ZM138.276 24.1596C137.356 24.5379 136.435 24.9109 135.512 25.2786L135.142 24.3496C136.061 23.9832 136.979 23.6117 137.896 23.2348L138.276 24.1596ZM132.735 26.3663C131.807 26.7237 130.878 27.0758 129.947 27.4226L129.598 26.4855C130.525 26.14 131.451 25.7892 132.376 25.4332L132.735 26.3663ZM127.146 28.4476C126.211 28.7841 125.273 29.1152 124.335 29.441L124.007 28.4963C124.942 28.1717 125.876 27.8418 126.808 27.5066L127.146 28.4476ZM121.512 30.4027C120.569 30.718 119.625 31.0279 118.679 31.3325L118.372 30.3806C119.315 30.0772 120.255 29.7684 121.195 29.4543L121.512 30.4027ZM115.835 32.2304C114.885 32.5244 113.934 32.8131 112.981 33.0963L112.696 32.1378C113.646 31.8556 114.593 31.5681 115.539 31.2752L115.835 32.2304ZM110.118 33.93C109.162 34.2026 108.205 34.4697 107.246 34.7314L106.983 33.7667C107.938 33.506 108.892 33.2399 109.844 32.9683L110.118 33.93ZM104.365 35.5006C103.403 35.7515 102.44 35.9971 101.475 36.2372L101.234 35.2668C102.195 35.0276 103.154 34.783 104.113 34.5329L104.365 35.5006ZM98.5779 36.9412C97.6106 37.1705 96.6421 37.3943 95.6724 37.6127L95.4528 36.6371C96.4188 36.4196 97.3836 36.1966 98.3472 35.9682L98.5779 36.9412ZM92.7596 38.2514C91.7875 38.4588 90.8143 38.6608 89.8399 38.8573L89.6422 37.877C90.6129 37.6813 91.5825 37.48 92.551 37.2734L92.7596 38.2514ZM86.9135 39.4303C85.9369 39.6158 84.9594 39.7958 83.9808 39.9703L83.8052 38.9859C84.7801 38.812 85.754 38.6327 86.7268 38.4478L86.9135 39.4303ZM81.0423 40.4773C80.0618 40.6408 79.0805 40.7988 78.0982 40.9513L77.9448 39.9631C78.9234 39.8112 79.9011 39.6538 80.8778 39.491L81.0423 40.4773ZM75.1488 41.3921C74.1651 41.5335 73.1804 41.6693 72.1949 41.7996L72.0638 40.8083C73.0456 40.6784 74.0265 40.5431 75.0066 40.4022L75.1488 41.3921ZM69.2366 42.174C68.2499 42.2932 67.2624 42.4068 66.2741 42.515L66.1653 41.5209C67.1499 41.4132 68.1336 41.2999 69.1167 41.1812L69.2366 42.174ZM63.308 42.8226C62.3189 42.9196 61.3292 43.011 60.3388 43.0969L60.2524 42.1006C61.239 42.0151 62.2251 41.924 63.2104 41.8274L63.308 42.8226ZM57.3665 43.3377C56.3755 43.4124 55.3838 43.4816 54.3916 43.5451L54.3277 42.5472C55.3162 42.4839 56.3041 42.415 57.2914 42.3406L57.3665 43.3377ZM51.4148 43.719C50.4224 43.7714 49.4295 43.8182 48.4362 43.8594L48.3948 42.8603C49.3843 42.8192 50.3734 42.7726 51.3621 42.7204L51.4148 43.719ZM45.4561 43.9663C44.4627 43.9964 43.4689 44.0208 42.4748 44.0397L42.4558 43.0398C43.4462 43.0211 44.4363 42.9967 45.4259 42.9668L45.4561 43.9663ZM39.4933 44.0795C38.4997 44.0871 37.5057 44.0892 36.5114 44.0857L36.515 43.0857C37.5055 43.0892 38.4957 43.0871 39.4856 43.0795L39.4933 44.0795ZM33.5294 44.0584C32.5358 44.0437 31.5419 44.0234 30.5479 43.9976L30.574 42.9979C31.5642 43.0237 32.5543 43.0439 33.5442 43.0585L33.5294 44.0584ZM27.5677 43.9032C27.071 43.8847 26.5742 43.8647 26.0774 43.8434L26.1203 42.8443C26.6152 42.8656 27.1102 42.8854 27.605 42.9039L27.5677 43.9032ZM26.0774 43.8434L24.5018 43.7758L24.5447 42.7767L26.1203 42.8443L26.0774 43.8434ZM21.3505 43.6405L18.1992 43.5052L18.2421 42.5061L21.3934 42.6414L21.3505 43.6405ZM15.048 43.3699L11.8967 43.2346L11.9396 42.2356L15.0909 42.3708L15.048 43.3699ZM8.74541 43.0994L5.59414 42.9641L5.63703 41.965L8.78831 42.1003L8.74541 43.0994Z" fill="#00A344"/>
</svg>
