<svg width="175" height="69" viewBox="0 0 175 69" fill="none" xmlns="http://www.w3.org/2000/svg">
<path fill-rule="evenodd" clip-rule="evenodd" d="M129.571 31.9074C130.191 28.9874 132.671 27.297 135.383 27.297C138.909 27.297 140.769 29.6023 141.196 31.9074H129.571ZM125.309 33.8284C125.309 39.5532 129.765 44.01 135.383 44.01C139.297 44.01 141.661 42.3963 143.211 40.8595C144.102 39.9374 144.76 38.8616 145.264 37.6706H141.002C140.653 38.17 140.227 38.6311 139.723 39.0153C138.832 39.7452 137.398 40.36 135.383 40.36C132.477 40.36 129.997 38.439 129.377 35.1732H145.458V33.8284C145.458 28.1037 141.002 23.647 135.383 23.647C129.765 23.647 125.309 28.1037 125.309 33.8284Z" fill="white"/>
<path fill-rule="evenodd" clip-rule="evenodd" d="M118.95 24.031H114.154V27.681H116.916V43.6256H120.985V27.681H123.747V24.031H118.95Z" fill="white"/>
<path fill-rule="evenodd" clip-rule="evenodd" d="M97.0591 33.8284C97.0591 29.8326 99.5391 27.297 103.065 27.297C106.591 27.297 109.071 29.8326 109.071 33.8284C109.071 37.8242 106.591 40.36 103.065 40.36C99.5391 40.36 97.0591 37.8242 97.0591 33.8284ZM92.7969 33.8284C92.7969 39.5532 97.2917 44.01 103.065 44.01C108.839 44.01 113.334 39.5532 113.334 33.8284C113.334 28.1037 108.839 23.647 103.065 23.647C97.2917 23.647 92.7969 28.1037 92.7969 33.8284Z" fill="white"/>
<path fill-rule="evenodd" clip-rule="evenodd" d="M85.2402 43.6256H89.3089V24.031H85.2402V43.6256Z" fill="white"/>
<path fill-rule="evenodd" clip-rule="evenodd" d="M84.8516 19.1517C84.8516 20.4964 85.8979 21.5338 87.2541 21.5338C88.6103 21.5338 89.6952 20.4964 89.6952 19.1517C89.6952 17.8069 88.6103 16.7312 87.2541 16.7312C85.8979 16.7312 84.8516 17.8069 84.8516 19.1517Z" fill="white"/>
<path fill-rule="evenodd" clip-rule="evenodd" d="M66.0589 33.8283C66.0589 29.5637 68.3838 27.2969 71.6775 27.2969C75.2036 27.2969 77.4898 29.5637 77.4898 33.8283C77.4898 38.0931 75.2036 40.3599 71.6775 40.3599C68.3838 40.3599 66.0589 38.0931 66.0589 33.8283ZM61.9902 43.6257H66.0589V41.1283H66.2527C66.6789 41.6663 67.2214 42.1657 67.8413 42.5884C68.8876 43.3182 70.3988 44.0099 72.4525 44.0099C77.6836 44.0099 81.7521 39.9757 81.7521 33.8283C81.7521 27.681 77.6836 23.6469 72.4525 23.6469C70.3988 23.6469 68.8876 24.3769 67.8413 25.1069C67.2214 25.5296 66.6789 26.029 66.2527 26.5285H66.0589V17.0413H61.9902V43.6257Z" fill="white"/>
<path fill-rule="evenodd" clip-rule="evenodd" d="M153.111 35.7893L153.115 37.6502C152.986 40.6469 155.647 40.2333 157.512 40.0131V43.4396C152.698 44.7186 149.055 43.4168 149.039 37.4067L149.043 35.7893H153.111Z" fill="white"/>
<path fill-rule="evenodd" clip-rule="evenodd" d="M151.077 24.031H146.281V27.681H149.043V37.3286H153.112V27.681H155.873V24.031H151.077Z" fill="white"/>
<path fill-rule="evenodd" clip-rule="evenodd" d="M149.043 17.0413H153.112V25.1657H149.043V17.0413Z" fill="white"/>
<path fill-rule="evenodd" clip-rule="evenodd" d="M120.973 24.7789L120.976 22.918C120.865 20.3302 123.508 20.335 125.373 20.5552V17.1286C121.303 15.8477 116.915 17.6125 116.9 23.1615L116.904 24.7789H120.973Z" fill="white"/>
<path fill-rule="evenodd" clip-rule="evenodd" d="M159.526 17.4345C159.964 17 160.569 16.7312 161.238 16.7312C161.907 16.7312 162.513 17 162.951 17.4345C163.389 17.8691 163.66 18.4694 163.66 19.1325C163.66 19.7957 163.389 20.3961 162.951 20.8306C162.513 21.2652 161.907 21.534 161.238 21.534C160.569 21.534 159.964 21.2652 159.526 20.8306C159.087 20.3961 158.816 19.7957 158.816 19.1325C158.816 18.4694 159.087 17.8691 159.526 17.4345ZM162.489 17.8928C162.169 17.5755 161.727 17.3793 161.238 17.3793C160.75 17.3793 160.308 17.5755 159.988 17.8928C159.668 18.2101 159.47 18.6485 159.47 19.1325C159.47 19.6167 159.668 20.0551 159.988 20.3723C160.308 20.6895 160.75 20.8858 161.238 20.8858C161.727 20.8858 162.169 20.6895 162.489 20.3723C162.809 20.0551 163.007 19.6167 163.007 19.1325C163.007 18.6485 162.809 18.2101 162.489 17.8928ZM160.9 20.3232H160.385V17.8053H161.356C161.619 17.8053 161.826 17.8812 161.971 18.0241C162.116 18.1679 162.193 18.3735 162.193 18.6322C162.193 18.8355 162.137 19.0064 162.036 19.1385C161.966 19.23 161.875 19.3013 161.765 19.3508L162.396 20.3232H161.648L161.095 19.4557H161.032V20.3232H160.9ZM161.494 18.437C161.456 18.3986 161.392 18.3789 161.303 18.3789H161.032V18.8823H161.31C161.389 18.8823 161.452 18.8611 161.491 18.821C161.53 18.7809 161.552 18.7175 161.552 18.6322C161.552 18.5415 161.533 18.4761 161.494 18.437Z" fill="white"/>
<path fill-rule="evenodd" clip-rule="evenodd" d="M33.2598 11.1917C39.6877 11.1917 44.8986 16.3584 44.8986 22.732C44.8986 24.9792 44.2508 27.0763 43.1302 28.8497L41.458 29.8069C42.2628 28.4271 42.7235 26.8249 42.7235 25.1165C42.7235 22.5252 41.6642 20.1792 39.9517 18.4811C38.2393 16.7831 35.8731 15.7326 33.2598 15.7326V11.1917Z" fill="white"/>
<path fill-rule="evenodd" clip-rule="evenodd" d="M33.2598 19.3311C35.3718 19.3311 37.2844 20.1801 38.6686 21.5525C40.0528 22.9249 40.909 24.8214 40.909 26.9156C40.909 28.2964 40.5365 29.5913 39.8862 30.7068L37.7297 31.9412C38.1686 31.1887 38.4196 30.3156 38.4196 29.384C38.4196 27.9712 37.842 26.692 36.9083 25.7663C35.9748 24.8405 34.6846 24.2678 33.2598 24.2678V19.3311Z" fill="white"/>
<path fill-rule="evenodd" clip-rule="evenodd" d="M53.6168 22.8459C56.8307 28.3657 54.9234 35.4236 49.3566 38.6104C47.3939 39.7339 45.2383 40.2261 43.129 40.1507L41.457 39.1934C43.0645 39.1945 44.6941 38.789 46.1865 37.9347C48.4497 36.6392 49.9691 34.5566 50.5959 32.237C51.2228 29.9176 50.9573 27.3605 49.6506 25.1164L53.6168 22.8459Z" fill="white"/>
<path fill-rule="evenodd" clip-rule="evenodd" d="M46.5074 26.9158C47.5634 28.7293 47.7782 30.7962 47.2716 32.6711C46.765 34.5459 45.5368 36.2293 43.7076 37.2764C42.5015 37.9668 41.1843 38.2944 39.8848 38.2936L37.7285 37.059C38.6052 37.0598 39.4934 36.8387 40.3069 36.3729C41.5409 35.6665 42.3694 34.531 42.7111 33.2664C43.0528 32.0018 42.9081 30.6076 42.1956 29.3841L46.5074 26.9158Z" fill="white"/>
<path fill-rule="evenodd" clip-rule="evenodd" d="M53.6178 46.1545C50.4038 51.6742 43.2855 53.5652 37.7188 50.3784C35.756 49.2548 34.2484 47.6499 33.2598 45.8009V43.8865C34.0626 45.2675 35.2315 46.4641 36.7238 47.3184C38.987 48.614 41.5657 48.8775 43.9051 48.256C46.2443 47.6346 48.3449 46.128 49.6516 43.884L53.6178 46.1545Z" fill="white"/>
<path fill-rule="evenodd" clip-rule="evenodd" d="M46.5087 42.0847C45.4527 43.8982 43.7548 45.116 41.864 45.6185C39.9732 46.1208 37.8887 45.9078 36.0597 44.8608C34.8536 44.1702 33.9089 43.2029 33.2598 42.0867L33.2599 39.6178C33.6977 40.3708 34.3349 41.0231 35.1484 41.4889C36.3824 42.1952 37.7884 42.339 39.0638 42C40.3392 41.6611 41.4845 40.8397 42.1969 39.6162L46.5087 42.0847Z" fill="white"/>
<path fill-rule="evenodd" clip-rule="evenodd" d="M33.2578 57.8086C26.8297 57.8083 21.619 52.6414 21.6191 46.2678C21.6191 44.0207 22.2671 41.9236 23.3878 40.1503L25.0599 39.1931C24.2551 40.5728 23.7943 42.1749 23.7943 43.8835C23.7943 46.4748 24.8535 48.8207 26.566 50.5189C28.2784 52.2169 30.6445 53.2675 33.2578 53.2675V57.8086Z" fill="white"/>
<path fill-rule="evenodd" clip-rule="evenodd" d="M33.2585 49.669C31.1465 49.669 29.2339 48.8199 27.8497 47.4474C26.4656 46.075 25.6094 44.1787 25.6094 42.0845C25.6095 40.7036 25.982 39.4086 26.6325 38.2932L28.7889 37.0588C28.3499 37.8113 28.0989 38.6845 28.0989 39.616C28.0989 41.0288 28.6764 42.308 29.6101 43.2337C30.5437 44.1595 31.8338 44.7324 33.2586 44.7324L33.2585 49.669Z" fill="white"/>
<path fill-rule="evenodd" clip-rule="evenodd" d="M12.9009 46.1538C9.68713 40.6339 11.5946 33.5761 17.1615 30.3895C19.1242 29.2659 21.2798 28.7737 23.3891 28.8493L25.0611 29.8066C23.4536 29.8055 21.824 30.2109 20.3316 31.0652C18.0684 32.3607 16.5489 34.4433 15.922 36.7628C15.295 39.0822 15.5606 41.6393 16.8671 43.8834L12.9009 46.1538Z" fill="white"/>
<path fill-rule="evenodd" clip-rule="evenodd" d="M20.0103 42.0842C18.9544 40.2707 18.7396 38.2038 19.2463 36.3289C19.753 34.4541 20.9812 32.7707 22.8103 31.7237C24.0164 31.0333 25.3337 30.7057 26.6332 30.7065L28.7895 31.9412C27.9129 31.9405 27.0246 32.1615 26.2111 32.6272C24.977 33.3336 24.1485 34.4691 23.8069 35.7338C23.4651 36.9983 23.6097 38.3925 24.3222 39.616L20.0103 42.0842Z" fill="white"/>
<path fill-rule="evenodd" clip-rule="evenodd" d="M12.9023 22.8453C16.1166 17.3256 23.2349 15.4348 28.8015 18.6217C30.7642 19.7454 32.2719 21.3503 33.2604 23.1993V25.1137C32.4576 23.7328 31.2886 22.5361 29.7964 21.6818C27.5333 20.386 24.9546 20.1225 22.6152 20.744C20.2759 21.3653 18.1753 22.8718 16.8684 25.1159L12.9023 22.8453Z" fill="white"/>
<path fill-rule="evenodd" clip-rule="evenodd" d="M20.0098 26.9151C21.0658 25.1015 22.7637 23.8838 24.6545 23.3814C26.5453 22.8791 28.6298 23.0922 30.4588 24.1393C31.6649 24.8298 32.6096 25.7971 33.2586 26.9134L33.2585 29.3822C32.8207 28.6292 32.1835 27.977 31.37 27.5113C30.136 26.8048 28.73 26.6611 27.4546 26.9999C26.1792 27.3388 25.0339 28.1602 24.3215 29.3836L20.0098 26.9151Z" fill="white"/>
<path d="M33.2586 38.4805C35.4757 38.4805 37.2731 36.6984 37.2731 34.5C37.2731 32.3017 35.4757 30.5195 33.2586 30.5195C31.0415 30.5195 29.2441 32.3017 29.2441 34.5C29.2441 36.6984 31.0415 38.4805 33.2586 38.4805Z" fill="white"/>
</svg>
