<svg width="175" height="70" viewBox="0 0 175 70" fill="none" xmlns="http://www.w3.org/2000/svg">
<path d="M129.599 32.3844C130.22 29.42 132.701 27.7038 135.416 27.7038C138.944 27.7038 140.805 30.0441 141.232 32.3844H129.599ZM125.334 34.3345C125.334 40.1462 129.793 44.6707 135.416 44.6707C139.332 44.6707 141.697 43.0325 143.248 41.4724C144.14 40.5362 144.799 39.4442 145.303 38.235H141.038C140.689 38.7419 140.262 39.2101 139.758 39.6001C138.867 40.3412 137.432 40.9652 135.416 40.9652C132.507 40.9652 130.026 39.0151 129.405 35.6997H145.497V34.3345C145.497 28.5229 141.038 23.9985 135.416 23.9985C129.793 23.9985 125.334 28.5229 125.334 34.3345V34.3345Z" fill="#009B43"/>
<path d="M118.973 24.3885H114.174V28.0939H116.938V44.2807H121.009V28.0939H123.773V24.3885H118.973Z" fill="#009B43"/>
<path d="M97.0641 34.3345C97.0641 30.278 99.5458 27.7038 103.074 27.7038C106.603 27.7038 109.085 30.278 109.085 34.3345C109.085 38.391 106.603 40.9652 103.074 40.9652C99.5458 40.9652 97.0641 38.391 97.0641 34.3345ZM92.7988 34.3345C92.7988 40.1462 97.2968 44.6707 103.074 44.6707C108.852 44.6707 113.35 40.1462 113.35 34.3345C113.35 28.5229 108.852 23.9985 103.074 23.9985C97.2968 23.9985 92.7988 28.5229 92.7988 34.3345V34.3345Z" fill="#009B43"/>
<path d="M85.2383 44.2807H89.3097V24.3885H85.2383V44.2807Z" fill="#009B43"/>
<path d="M84.8496 19.4349C84.8496 20.8001 85.8966 21.8531 87.2537 21.8531C88.6109 21.8531 89.6966 20.8001 89.6966 19.4349C89.6966 18.0697 88.6109 16.9777 87.2537 16.9777C85.8966 16.9777 84.8496 18.0697 84.8496 19.4349Z" fill="#009B43"/>
<path d="M66.0441 34.3345C66.0441 30.0052 68.3707 27.7038 71.6666 27.7038C75.1952 27.7038 77.4829 30.0052 77.4829 34.3345C77.4829 38.6641 75.1952 40.9653 71.6666 40.9653C68.3707 40.9653 66.0441 38.6641 66.0441 34.3345ZM61.9727 44.2807H66.0441V41.7454H66.238C66.6645 42.2915 67.2074 42.7984 67.8277 43.2276C68.8748 43.9686 70.387 44.6707 72.4421 44.6707C77.6768 44.6707 81.7482 40.5753 81.7482 34.3345C81.7482 28.094 77.6768 23.9985 72.4421 23.9985C70.387 23.9985 68.8748 24.7395 67.8277 25.4805C67.2074 25.9097 66.6645 26.4167 66.238 26.9238H66.0441V17.2926H61.9727V44.2807Z" fill="#009B43"/>
<path d="M153.155 36.3253L153.159 38.2145C153.03 41.2566 155.692 40.8368 157.559 40.6132V44.0917C152.741 45.3903 149.096 44.0686 149.08 37.9673L149.084 36.3253H153.155V36.3253Z" fill="#009B43"/>
<path d="M151.12 24.3885H146.32V28.0939H149.084V37.888H153.155V28.0939H155.919V24.3885H151.12Z" fill="#009B43"/>
<path d="M153.155 17.2926H149.084V25.5405H153.155V17.2926Z" fill="#009B43"/>
<path d="M120.997 25.1476L121.001 23.2586C120.889 20.6313 123.534 20.6363 125.4 20.8598V17.3812C121.327 16.0807 116.937 17.8722 116.922 23.5057L116.926 25.1476H120.997Z" fill="#009B43"/>
<path fill-rule="evenodd" clip-rule="evenodd" d="M12.8633 23.177C16.1089 17.5222 23.2973 15.5846 28.9191 18.8496C34.5407 22.1144 36.4669 29.3452 33.2211 35.0001L12.8633 23.177V23.177Z" fill="#009B43"/>
<path fill-rule="evenodd" clip-rule="evenodd" d="M53.5791 46.8231C50.3334 52.4781 43.1451 54.4155 37.5233 51.1507C31.9017 47.8858 29.9755 40.655 33.2212 35.0001L53.5791 46.8231Z" fill="#009B43"/>
<path fill-rule="evenodd" clip-rule="evenodd" d="M53.5786 23.177C56.8244 28.832 54.8983 36.0628 49.2766 39.3276C43.6548 42.5925 36.4665 40.655 33.2207 35.0001L53.5786 23.177V23.177Z" fill="#009B43"/>
<path fill-rule="evenodd" clip-rule="evenodd" d="M12.8638 46.8231C9.61805 41.1682 11.5442 33.9374 17.1659 30.6726C22.7877 27.4076 29.976 29.3452 33.2216 35.0001L12.8638 46.8231V46.8231Z" fill="#009B43"/>
<path fill-rule="evenodd" clip-rule="evenodd" d="M33.2224 58.6461C26.7309 58.6461 21.4688 53.3529 21.4688 46.8231C21.4688 40.2934 26.7309 35.0001 33.2224 35.0001V58.6461Z" fill="#009B43"/>
<path fill-rule="evenodd" clip-rule="evenodd" d="M33.2207 11.354C39.7123 11.354 44.9744 16.6472 44.9744 23.177C44.9744 29.7068 39.7123 35.0001 33.2207 35.0001V11.354V11.354Z" fill="#009B43"/>
<path fill-rule="evenodd" clip-rule="evenodd" d="M17.0938 25.634C19.6649 21.1544 25.3595 19.6195 29.8129 22.2059C34.2664 24.7922 35.7921 30.5204 33.2209 35.0001L17.0938 25.634V25.634Z" fill="#FEFEFE" stroke="#FEFEFE" stroke-width="0.3386" stroke-miterlimit="22.9256"/>
<path fill-rule="evenodd" clip-rule="evenodd" d="M49.3489 44.3661C46.7777 48.8458 41.0832 50.3806 36.6297 47.7943C32.1763 45.208 30.6505 39.4797 33.2216 35.0001L49.3489 44.3661V44.3661Z" fill="#FEFEFE" stroke="#FEFEFE" stroke-width="0.3386" stroke-miterlimit="22.9256"/>
<path fill-rule="evenodd" clip-rule="evenodd" d="M49.348 25.634C51.9191 30.1138 50.3933 35.8419 45.9399 38.4283C41.4864 41.0147 35.7919 39.4798 33.2207 35.0001L49.348 25.634V25.634Z" fill="#FEFEFE" stroke="#FEFEFE" stroke-width="0.3386" stroke-miterlimit="22.9256"/>
<path fill-rule="evenodd" clip-rule="evenodd" d="M17.0946 44.3661C14.5236 39.8864 16.0494 34.1582 20.5028 31.5719C24.9562 28.9855 30.6508 30.5204 33.2218 35.0001L17.0946 44.3661V44.3661Z" fill="#FEFEFE" stroke="#FEFEFE" stroke-width="0.3386" stroke-miterlimit="22.9256"/>
<path fill-rule="evenodd" clip-rule="evenodd" d="M33.2212 53.7321C28.0789 53.7321 23.9102 49.5388 23.9102 44.3661C23.9102 39.1934 28.0789 35.0001 33.2212 35.0001V53.7321Z" fill="#FEFEFE" stroke="#FEFEFE" stroke-width="0.3386" stroke-miterlimit="22.9256"/>
<path fill-rule="evenodd" clip-rule="evenodd" d="M33.2207 16.268C38.3631 16.268 42.5318 20.4614 42.5318 25.634C42.5318 30.8068 38.3631 35.0001 33.2207 35.0001V16.268Z" fill="#FEFEFE" stroke="#FEFEFE" stroke-width="0.3386" stroke-miterlimit="22.9256"/>
<path fill-rule="evenodd" clip-rule="evenodd" d="M21.0078 27.9065C22.9552 24.5136 27.268 23.3511 30.641 25.31C34.014 27.2689 35.1695 31.6073 33.2221 35.0001L21.0078 27.9065Z" fill="#FDCB00" stroke="#FDCB00" stroke-width="0.3386" stroke-miterlimit="22.9256"/>
<path fill-rule="evenodd" clip-rule="evenodd" d="M45.4358 42.0937C43.4884 45.4865 39.1756 46.649 35.8025 44.6901C32.4296 42.7312 31.274 38.393 33.2213 35.0001L45.4358 42.0937Z" fill="#FDCB00" stroke="#FDCB00" stroke-width="0.3386" stroke-miterlimit="22.9256"/>
<path fill-rule="evenodd" clip-rule="evenodd" d="M45.4351 27.9065C47.3825 31.2993 46.2268 35.6377 42.8539 37.5966C39.481 39.5553 35.1681 38.393 33.2207 35.0001L45.4351 27.9065V27.9065Z" fill="#FDCB00" stroke="#FDCB00" stroke-width="0.3386" stroke-miterlimit="22.9256"/>
<path fill-rule="evenodd" clip-rule="evenodd" d="M21.0065 42.0937C19.0591 38.7008 20.2148 34.3625 23.5877 32.4037C26.9607 30.4448 31.2736 31.6073 33.2208 35.0001L21.0065 42.0937Z" fill="#FDCB00" stroke="#FDCB00" stroke-width="0.3386" stroke-miterlimit="22.9256"/>
<path fill-rule="evenodd" clip-rule="evenodd" d="M33.2218 49.1873C29.3272 49.1873 26.1699 46.0114 26.1699 42.0937C26.1699 38.176 29.3272 35.0001 33.2218 35.0001V49.1873Z" fill="#FDCB00" stroke="#FDCB00" stroke-width="0.3386" stroke-miterlimit="22.9256"/>
<path fill-rule="evenodd" clip-rule="evenodd" d="M33.2207 20.8129C37.1155 20.8129 40.2727 23.9888 40.2727 27.9065C40.2727 31.8242 37.1155 35.0001 33.2207 35.0001V20.8129Z" fill="#FDCB00" stroke="#FDCB00" stroke-width="0.3386" stroke-miterlimit="22.9256"/>
<path fill-rule="evenodd" clip-rule="evenodd" d="M25.0781 30.271C26.3764 28.0091 29.2517 27.2341 31.5003 28.54C33.7489 29.8459 34.5193 32.7382 33.221 35.0001L25.0781 30.271V30.271Z" fill="#009B43" stroke="#009B43" stroke-width="0.3386" stroke-miterlimit="22.9256"/>
<path fill-rule="evenodd" clip-rule="evenodd" d="M41.3654 39.7292C40.0672 41.9911 37.1918 42.766 34.9432 41.4601C32.6946 40.1543 31.9242 37.262 33.2224 35.0001L41.3654 39.7292Z" fill="#009B43" stroke="#009B43" stroke-width="0.3386" stroke-miterlimit="22.9256"/>
<path fill-rule="evenodd" clip-rule="evenodd" d="M41.3637 30.271C42.662 32.5329 41.8915 35.4252 39.6429 36.731C37.3943 38.0369 34.519 37.262 33.2207 35.0001L41.3637 30.271V30.271Z" fill="#009B43" stroke="#009B43" stroke-width="0.3386" stroke-miterlimit="22.9256"/>
<path fill-rule="evenodd" clip-rule="evenodd" d="M25.0779 39.7292C23.7796 37.4673 24.5501 34.5751 26.7988 33.2691C29.0474 31.9632 31.9227 32.7382 33.2208 35.0001L25.0779 39.7292V39.7292Z" fill="#009B43" stroke="#009B43" stroke-width="0.3386" stroke-miterlimit="22.9256"/>
<path fill-rule="evenodd" clip-rule="evenodd" d="M33.2209 44.4583C30.6245 44.4583 28.5195 42.341 28.5195 39.7292C28.5195 37.1174 30.6245 35.0001 33.2209 35.0001V44.4583V44.4583Z" fill="#009B43" stroke="#009B43" stroke-width="0.3386" stroke-miterlimit="22.9256"/>
<path fill-rule="evenodd" clip-rule="evenodd" d="M33.2207 25.5419C35.8172 25.5419 37.9222 27.6592 37.9222 30.271C37.9222 32.8828 35.8172 35.0001 33.2207 35.0001V25.5419V25.5419Z" fill="#009B43" stroke="#009B43" stroke-width="0.3386" stroke-miterlimit="22.9256"/>
<path d="M33.2212 38.8867C35.3551 38.8867 37.085 37.1466 37.085 35.0001C37.085 32.8536 35.3551 31.1135 33.2212 31.1135C31.0873 31.1135 29.3574 32.8536 29.3574 35.0001C29.3574 37.1466 31.0873 38.8867 33.2212 38.8867Z" fill="#FDCB00" stroke="#FDCB00" stroke-width="0.3386" stroke-miterlimit="22.9256"/>
<path d="M159.575 17.6917C160.014 17.2504 160.62 16.9775 161.289 16.9775C161.958 16.9775 162.564 17.2504 163.002 17.6917C163.441 18.1328 163.712 18.7423 163.712 19.4155C163.712 20.0886 163.441 20.6981 163.002 21.1393C162.564 21.5804 161.958 21.8533 161.289 21.8533C160.62 21.8533 160.014 21.5804 159.575 21.1393C159.137 20.6981 158.865 20.0886 158.865 19.4155C158.865 18.7423 159.137 18.1328 159.575 17.6917ZM162.54 18.1569C162.22 17.8349 161.777 17.6356 161.289 17.6356C160.8 17.6356 160.358 17.8349 160.038 18.1569C159.717 18.479 159.519 18.9239 159.519 19.4155C159.519 19.907 159.717 20.3521 160.038 20.6741C160.358 20.9962 160.8 21.1954 161.289 21.1954C161.777 21.1954 162.22 20.9962 162.54 20.6741C162.86 20.3521 163.058 19.907 163.058 19.4155C163.058 18.9239 162.86 18.479 162.54 18.1569ZM160.951 20.6241H160.435V18.0681H161.406C161.669 18.0681 161.877 18.1451 162.022 18.2901C162.167 18.436 162.244 18.6448 162.244 18.9074C162.244 19.114 162.189 19.2874 162.087 19.4216C162.017 19.5144 161.926 19.5868 161.816 19.637L162.447 20.6241H161.698L161.145 19.7436H161.082V20.6241H160.951V20.6241ZM161.545 18.7093C161.506 18.6703 161.443 18.6503 161.354 18.6503H161.082V19.1614H161.36C161.44 19.1614 161.502 19.1399 161.542 19.099C161.581 19.0585 161.603 18.9941 161.603 18.9074C161.603 18.8154 161.583 18.749 161.545 18.7093Z" fill="#009B43"/>
</svg>
