<svg width="100" height="100" viewBox="0 0 100 100" fill="none" xmlns="http://www.w3.org/2000/svg">
<path d="M81.8962 27.5739C81.8962 27.5739 80.0217 28.6271 80.5985 30.1016C80.5985 30.1016 82.5451 30.6633 83.3382 32.0675C84.1312 33.4718 90.2594 38.5272 90.2594 38.5272L94.7293 36.3506C94.7293 36.3506 93.1743 34.3289 88.2562 32.9174C88.2562 32.9174 85.3568 29.8909 84.3475 29.3292C83.3382 28.7675 81.8962 27.5739 81.8962 27.5739Z" fill="#CBCDDA"/>
<path opacity="0.05" d="M81.8962 27.5739C81.8962 27.5739 80.0217 28.6271 80.5985 30.1016C80.5985 30.1016 82.5451 30.6633 83.3382 32.0675C84.1312 33.4718 90.2594 38.5272 90.2594 38.5272L94.7293 36.3506C94.7293 36.3506 93.1743 34.3289 88.2562 32.9174C88.2562 32.9174 85.3568 29.8909 84.3475 29.3292C83.3382 28.7675 81.8962 27.5739 81.8962 27.5739Z" fill="black"/>
<path opacity="0.1" d="M17.088 94.7887C16.1255 95.0203 15.1187 94.75 14.1274 94.7385C13.136 94.727 11.9795 95.1328 11.7365 96.0689C11.4101 97.3262 12.9193 98.2741 14.2115 98.5873C19.2268 99.803 24.5359 98.2251 29.6618 98.8687C31.8218 99.1399 33.9224 99.8035 36.0943 99.9618C41.0654 100.324 45.9225 98.0215 50.9004 98.2811C53.3943 98.4111 55.8183 99.1824 58.3125 99.3062C64.2802 99.6023 70.1678 96.1903 76.0099 97.4129C77.6595 97.7581 79.2084 98.4619 80.8429 98.8695C84.9754 99.9 89.3258 98.9815 93.4859 98.0625C94.312 97.8801 95.3078 97.5249 95.4096 96.7059C95.5219 95.8023 94.4565 95.2356 93.5701 94.9469C83.8773 91.7899 73.4998 90.1174 63.3897 91.5765C61.089 91.9086 58.7949 92.402 56.4692 92.3694C51.3219 92.2973 46.5919 89.6823 41.5386 88.7257C31.9634 86.9133 22.3898 91.1418 13.5996 95.2601" fill="#00A344"/>
<path d="M30.361 67.9973H27.4297V92.134C27.4297 92.134 46.3498 98.1033 64.737 92.134V67.9973H30.361Z" fill="#3F3D56"/>
<path d="M45.8168 70.8525C55.9718 70.8525 64.204 69.6325 64.204 68.1274C64.204 66.6224 55.9718 65.4023 45.8168 65.4023C35.6619 65.4023 27.4297 66.6224 27.4297 68.1274C27.4297 69.6325 35.6619 70.8525 45.8168 70.8525Z" fill="#3F3D56"/>
<path opacity="0.1" d="M45.8168 70.8525C55.9718 70.8525 64.204 69.6325 64.204 68.1274C64.204 66.6224 55.9718 65.4023 45.8168 65.4023C35.6619 65.4023 27.4297 66.6224 27.4297 68.1274C27.4297 69.6325 35.6619 70.8525 45.8168 70.8525Z" fill="black"/>
<path d="M67.1911 39.16C62.5526 55.8595 46.6648 66.2019 46.6648 66.2019C46.6648 66.2019 38.2974 49.4691 42.9359 32.7696C47.5744 16.0702 63.4622 5.72778 63.4622 5.72778C63.4622 5.72778 71.8295 22.4606 67.1911 39.16Z" fill="#FFCD00"/>
<path d="M24.9945 39.16C29.633 55.8595 45.5208 66.2019 45.5208 66.2019C45.5208 66.2019 53.8881 49.4691 49.2497 32.7696C44.6112 16.0702 28.7234 5.72778 28.7234 5.72778C28.7234 5.72778 20.356 22.4606 24.9945 39.16Z" fill="#00A344"/>
<path d="M31.8096 35.5712C44.5377 47.6385 46.0923 66.1886 46.0923 66.1886C46.0923 66.1886 27.0107 65.1739 14.2827 53.1067C1.55464 41.0394 0 22.4893 0 22.4893C0 22.4893 19.0816 23.504 31.8096 35.5712Z" fill="#FFCD00"/>
<path d="M61.8139 35.5712C49.0859 47.6385 47.5312 66.1886 47.5312 66.1886C47.5312 66.1886 66.6128 65.1739 79.3409 53.1067C92.0689 41.0394 93.6236 22.4893 93.6236 22.4893C93.6236 22.4893 74.542 23.504 61.8139 35.5712Z" fill="#00A344"/>
<path d="M46.0833 11.4195C49.3211 11.4195 51.9458 8.86313 51.9458 5.70973C51.9458 2.55633 49.3211 0 46.0833 0C42.8455 0 40.2207 2.55633 40.2207 5.70973C40.2207 8.86313 42.8455 11.4195 46.0833 11.4195Z" fill="#00A344"/>
<path d="M10.9766 46.1449C11.3923 47.6139 12.8365 48.5076 12.8365 48.5076C12.8365 48.5076 13.6068 47.0196 13.1911 45.5506C12.7754 44.0816 11.3312 43.1879 11.3312 43.1879C11.3312 43.1879 10.5609 44.6759 10.9766 46.1449Z" fill="#00A344"/>
<path d="M18.7573 54.3264C18.3099 55.7866 19.0477 57.2901 19.0477 57.2901C19.0477 57.2901 20.511 56.4263 20.9584 54.9662C21.4059 53.506 20.668 52.0024 20.668 52.0024C20.668 52.0024 19.2048 52.8663 18.7573 54.3264Z" fill="#00A344"/>
<path d="M74.8794 63.7195C73.7812 64.8049 73.709 66.4699 73.709 66.4699C73.709 66.4699 75.4173 66.3751 76.5155 65.2897C77.6137 64.2043 77.6859 62.5393 77.6859 62.5393C77.6859 62.5393 75.9776 62.6341 74.8794 63.7195Z" fill="#00A344"/>
<path d="M93.5758 87.4681C93.5758 87.4681 93.792 90.5575 94.1525 90.9085C94.513 91.2596 90.9082 91.4702 90.9082 91.4702L91.4129 87.4681H93.5758Z" fill="#FFB9B9"/>
<path opacity="0.05" d="M93.5758 87.4681C93.5758 87.4681 93.792 90.5575 94.1525 90.9085C94.513 91.2596 90.9082 91.4702 90.9082 91.4702L91.4129 87.4681H93.5758Z" fill="black"/>
<path d="M94.3694 89.8553C94.3694 89.8553 93.8647 89.8553 92.0623 90.7681C92.0623 90.7681 90.8367 90.5574 90.332 88.8723C90.332 88.8723 88.818 91.4 87.8086 91.5404C86.7993 91.6809 84.8527 91.8213 86.1504 93.5064C87.4481 95.1915 95.0903 94.4192 95.0903 94.4192C95.0903 94.4192 95.3066 90.3468 94.3694 89.8553Z" fill="#CBCDDA"/>
<path opacity="0.05" d="M94.3694 89.8553C94.3694 89.8553 93.8647 89.8553 92.0623 90.7681C92.0623 90.7681 90.8367 90.5574 90.332 88.8723C90.332 88.8723 88.818 91.4 87.8086 91.5404C86.7993 91.6809 84.8527 91.8213 86.1504 93.5064C87.4481 95.1915 95.0903 94.4192 95.0903 94.4192C95.0903 94.4192 95.3066 90.3468 94.3694 89.8553Z" fill="black"/>
<path d="M93.2879 92.2427L92.7832 93.5769L89.4668 92.664L89.6557 91.3396L89.7011 91.0201L89.8273 90.1361C89.8273 90.1361 92.639 89.4339 92.639 89.785C92.677 90.0744 92.7387 90.3604 92.8236 90.6402C92.939 91.0721 93.0839 91.5643 93.1812 91.8881C93.2447 92.1022 93.2879 92.2427 93.2879 92.2427Z" fill="#FFB9B9"/>
<path d="M91.4776 73.9304C91.2505 74.3047 90.9931 75.0068 91.4711 75.8845C91.6127 76.1384 91.7869 76.3736 91.9895 76.5846C93.5756 78.2697 94.0082 82.0614 94.0082 82.0614V88.1701L92.9267 88.2509L91.1964 88.3808L88.601 77.9889C88.601 77.9889 87.087 70.4056 87.8079 69.0715C88.5289 67.7374 89.1777 59.3818 89.1777 59.3818L89.7761 58.778L91.1964 57.3456H95.3059C95.6347 57.5753 95.9076 57.8725 96.1055 58.2162C96.7954 59.3285 97.4147 61.6414 95.5222 65.9118C92.5663 72.5823 91.7011 73.6355 91.7011 73.6355C91.6154 73.7253 91.5404 73.8242 91.4776 73.9304Z" fill="#4C4C78"/>
<path opacity="0.05" d="M91.4776 73.9304C91.2505 74.3047 90.9931 75.0068 91.4711 75.8845C91.6127 76.1384 91.7869 76.3736 91.9895 76.5846C93.5756 78.2697 94.0082 82.0614 94.0082 82.0614V88.1701L92.9267 88.2509L91.1964 88.3808L88.601 77.9889C88.601 77.9889 87.087 70.4056 87.8079 69.0715C88.5289 67.7374 89.1777 59.3818 89.1777 59.3818L89.7761 58.778L91.1964 57.3456H95.3059C95.6347 57.5753 95.9076 57.8725 96.1055 58.2162C96.7954 59.3285 97.4147 61.6414 95.5222 65.9118C92.5663 72.5823 91.7011 73.6355 91.7011 73.6355C91.6154 73.7253 91.5404 73.8242 91.4776 73.9304Z" fill="black"/>
<path opacity="0.1" d="M92.8237 90.6403L89.7012 91.0202L89.8273 90.1361C89.8273 90.1361 92.6391 89.4338 92.6391 89.785C92.677 90.0744 92.7387 90.3604 92.8237 90.6403Z" fill="black"/>
<path d="M91.2707 64.929C91.2707 64.929 91.4502 70.4564 91.4798 73.9307C91.4863 74.7164 91.4856 75.3975 91.4733 75.8848C91.4774 76.1427 91.4579 76.4005 91.4149 76.655C91.1986 77.287 91.6312 78.6913 91.6312 78.6913C93.4336 83.3256 92.9289 87.3981 92.9289 87.3981V90.4876L89.4683 90.9089C89.4683 90.9089 90.0451 90.4876 88.459 86.4151C87.5477 84.0755 87.3501 81.7829 87.3473 80.255C87.3388 79.4187 87.1671 78.5916 86.8412 77.8178C86.7413 77.5569 86.6792 77.2837 86.6566 77.0061C86.5124 75.6018 85.8635 73.8464 85.8635 73.8464C85.8635 73.8464 84.1332 68.8611 83.7007 65.2098C83.5007 63.4719 83.5344 61.7159 83.8009 59.9865C83.8647 59.5469 83.9516 59.1107 84.0611 58.6797C84.0611 58.6797 91.1092 54.3601 93.7703 57.3456C94.0263 57.6377 94.2294 57.9701 94.3708 58.3287C94.5171 58.6829 94.631 59.0489 94.7111 59.4226C95.5395 63.3849 91.2707 64.929 91.2707 64.929Z" fill="#4C4C78"/>
<path d="M91.0538 34.1738C93.0845 34.1738 94.7307 32.5706 94.7307 30.5928C94.7307 28.6151 93.0845 27.0118 91.0538 27.0118C89.0231 27.0118 87.377 28.6151 87.377 30.5928C87.377 32.5706 89.0231 34.1738 91.0538 34.1738Z" fill="#FFB9B9"/>
<path d="M89.0343 32.8396C89.0343 32.8396 90.5483 36.9824 89.0343 39.1591C87.5203 41.3358 93.8647 40.6336 93.8647 40.6336L96.316 37.7548C96.316 37.7548 93.4321 37.7548 93.2879 32.8396C93.1437 27.9245 89.0343 32.8396 89.0343 32.8396Z" fill="#FFB9B9"/>
<path opacity="0.1" d="M96.3154 59.0307C95.7928 59.2067 95.2553 59.3378 94.7091 59.4225C93.8115 59.5573 92.7524 59.5622 92.1339 59.0307C91.7669 58.7154 90.8628 58.6768 89.7763 58.7779C87.488 58.9914 84.3907 59.8227 83.7988 59.9863C83.8627 59.5467 83.9495 59.1106 84.0591 58.6796C84.0591 58.6796 91.1072 54.3602 93.7683 57.3456H95.3061C95.6348 57.5753 95.9078 57.8725 96.1056 58.2162C96.2383 58.7751 96.3154 59.0307 96.3154 59.0307Z" fill="black"/>
<path opacity="0.1" d="M93.2879 92.2428L92.7832 93.5768L89.4668 92.6641L89.6557 91.34C90.2253 92.5672 91.1971 92.7343 91.1971 92.7343C92.2454 92.2035 92.8546 91.9817 93.1812 91.8883C93.2447 92.1024 93.2879 92.2428 93.2879 92.2428Z" fill="black"/>
<path d="M93.5041 91.8914C93.5041 91.8914 92.9994 91.8914 91.197 92.8043C91.197 92.8043 89.9714 92.5936 89.4667 90.9083C89.4667 90.9083 87.9527 93.4362 86.9434 93.5767C85.934 93.7171 83.9875 93.8576 85.2852 95.5428C86.5829 97.2281 94.2251 96.4557 94.2251 96.4557C94.2251 96.4557 94.4414 92.3829 93.5041 91.8914Z" fill="#CBCDDA"/>
<path d="M76.4004 31.2784C76.4004 31.2784 76.5412 28.5438 79.4921 28.8114C79.5747 28.819 79.6541 28.8464 79.7233 28.891C79.7925 28.9357 79.8492 28.9963 79.8886 29.0674C79.928 29.1386 79.9487 29.2181 79.949 29.2989C79.9493 29.3797 79.9291 29.4593 79.8902 29.5307L79.2852 30.6399L76.4004 31.2784Z" fill="#FFB9B9"/>
<path d="M93.4345 38.5976C93.4345 38.5976 89.9019 38.0358 88.9646 37.3337C88.9646 37.3337 88.2436 38.6678 86.9459 37.9656C85.6482 37.2635 82.6202 37.3337 82.6202 37.3337C82.6202 37.3337 80.0968 35.9996 79.5921 32.9803C79.5921 32.9803 79.0875 31.1547 79.2317 30.6632C79.2317 30.6632 77.3572 28.7674 76.4199 31.2951C76.7804 33.0505 77.0688 32.9101 76.9967 34.3144L78.1502 37.4039C78.1502 37.4039 78.2223 38.4571 80.3131 39.8614C82.4039 41.2657 84.783 43.4424 84.783 43.4424C84.783 43.4424 83.5214 44.1095 83.99 47.1638C84.5628 50.8971 83.7016 56.2216 83.7016 56.2216V59.6622C83.7016 59.6622 90.9112 57.6259 92.1368 58.6792C93.3625 59.7324 96.3184 58.6792 96.3184 58.6792C96.3184 58.6792 95.9579 57.4855 95.4532 54.6067C94.9486 51.7278 95.5253 48.9192 95.5253 48.9192C95.5253 48.9192 97.3998 44.0744 98.265 42.1083C99.1301 40.1423 97.6161 37.4741 96.1021 36.4911C94.5881 35.5081 94.0242 36.0983 94.0242 36.0983C94.0242 36.0983 96.6789 37.9656 93.4345 38.5976Z" fill="#CBCDDA"/>
<path opacity="0.1" d="M87.0758 29.7171C87.0746 29.8633 87.0999 30.0085 87.1505 30.1461C87.2347 30.3027 87.3496 30.4417 87.4887 30.5552C88.0286 31.0691 88.5022 31.6797 88.6922 32.3913C88.8208 32.873 88.8139 33.3779 88.8061 33.8756C88.7748 35.8917 88.688 38.0677 87.4094 39.6536C86.9395 40.2364 86.3355 40.6999 85.7677 41.1931C85.6885 41.2498 85.6285 41.3281 85.5952 41.4181C85.5796 41.514 85.5985 41.6121 85.6487 41.696C85.9121 42.2297 86.4678 42.557 86.9938 42.854C87.2343 42.9898 87.4876 43.1293 87.7653 43.1381C88.4209 43.1588 88.8541 42.4844 89.4507 42.2191C90.3191 41.8329 91.2938 42.3704 92.1558 42.7701C92.7802 43.0595 93.4351 43.2819 94.1089 43.4334C95.0316 43.6407 96.075 43.6916 96.8518 43.1642C97.3009 42.8561 97.6078 42.3885 97.7063 41.8621C97.7686 41.519 97.759 41.1207 98.0256 40.8884C98.163 40.7687 98.3505 40.719 98.4992 40.6129C98.7298 40.4484 98.8395 40.1716 98.9377 39.9101L99.8257 37.5452C99.9403 37.2953 99.9995 37.0246 99.9993 36.7509C99.9567 36.1815 99.4174 35.7681 98.876 35.5492C98.3346 35.3302 97.7358 35.2223 97.2597 34.8892C96.4547 34.3258 96.2062 33.2738 96.1339 32.3109C96.0842 31.6496 96.0891 30.9855 96.1484 30.3249C96.2363 29.3453 96.4329 28.3023 95.9855 27.4208C95.5077 26.4794 94.4356 25.9987 93.4429 25.5885C93.0617 25.431 92.6703 25.2712 92.2566 25.2534C91.8189 25.2346 91.3926 25.3762 90.9786 25.5161C90.3208 25.7382 89.6533 26.0259 88.9742 26.1766C88.5927 26.2612 88.1746 26.1979 87.8066 26.3323C86.4548 26.8261 87.0758 28.6571 87.0758 29.7171Z" fill="black"/>
<path d="M87.0758 29.5766C87.0746 29.7228 87.0999 29.868 87.1505 30.0056C87.2347 30.1622 87.3496 30.3012 87.4887 30.4147C88.0286 30.9286 88.5022 31.5392 88.6922 32.2508C88.8208 32.7325 88.8139 33.2374 88.8061 33.7351C88.7748 35.7512 88.688 37.9273 87.4094 39.5131C86.9395 40.096 86.3355 40.5594 85.7677 41.0527C85.6885 41.1093 85.6285 41.1877 85.5952 41.2777C85.5796 41.3735 85.5985 41.4717 85.6487 41.5555C85.9121 42.0893 86.4678 42.4166 86.9938 42.7136C87.2343 42.8494 87.4876 42.9889 87.7653 42.9977C88.4209 43.0183 88.8541 42.3439 89.4507 42.0786C90.3191 41.6924 91.2938 42.23 92.1558 42.6297C92.7802 42.9191 93.4351 43.1415 94.1089 43.293C95.0316 43.5003 96.075 43.5512 96.8518 43.0238C97.3009 42.7157 97.6078 42.248 97.7063 41.7217C97.7686 41.3786 97.759 40.9803 98.0256 40.748C98.163 40.6283 98.3505 40.5786 98.4992 40.4725C98.7298 40.308 98.8395 40.0311 98.9377 39.7697L99.8257 37.4047C99.9403 37.1548 99.9995 36.8842 99.9993 36.6105C99.9567 36.041 99.4174 35.6277 98.876 35.4087C98.3346 35.1898 97.7358 35.0819 97.2597 34.7487C96.4547 34.1854 96.2062 33.1333 96.1339 32.1704C96.0842 31.5091 96.0891 30.845 96.1484 30.1844C96.2363 29.2049 96.4329 28.1618 95.9855 27.2803C95.5077 26.3389 94.4356 25.8582 93.4429 25.448C93.0617 25.2905 92.6703 25.1307 92.2566 25.1129C91.8189 25.0941 91.3926 25.2357 90.9786 25.3756C90.3208 25.5977 89.6533 25.8854 88.9742 26.0361C88.5927 26.1207 88.1746 26.0574 87.8066 26.1918C86.4548 26.6856 87.0758 28.5166 87.0758 29.5766Z" fill="#FFCD00"/>
<path opacity="0.05" d="M84.1699 48.739C84.1699 48.739 84.7451 48.6033 87.6289 48.1821C90.5128 47.7609 95.5595 48.7437 95.5595 48.7437" fill="black"/>
<path d="M4.92585 60.2848C5.34154 61.7537 6.78575 62.6474 6.78575 62.6474C6.78575 62.6474 7.55599 61.1594 7.14031 59.6905C6.72462 58.2215 5.28041 57.3279 5.28041 57.3279C5.28041 57.3279 4.51016 58.8159 4.92585 60.2848Z" fill="#00A344"/>
</svg>
