<svg width="24" height="24" viewBox="0 0 24 24" fill="none" xmlns="http://www.w3.org/2000/svg">
<path d="M20.3037 4.14129C17.6653 5.19914 6.35197 9.73545 3.22611 10.9718C1.12977 11.7637 2.35699 12.5063 2.35699 12.5063C2.35699 12.5063 4.14648 13.1002 5.68056 13.5456C7.21443 13.9911 8.03251 13.4962 8.03251 13.4962L15.2419 8.79406C17.7984 7.11119 17.1849 8.49701 16.5712 9.09111C15.2419 10.3781 13.0433 12.4073 11.2025 14.0407C10.3845 14.7336 10.7934 15.3275 11.1515 15.6246C12.4808 16.7136 16.1112 18.9409 16.3156 19.0893C17.3957 19.8296 19.5204 20.8951 19.8435 18.6439L21.1218 10.873C21.5309 8.24978 21.9399 5.82438 21.9909 5.13147C22.1444 3.44838 20.3037 4.14129 20.3037 4.14129Z" fill="#00A344"/>
</svg>
